<?xml version="1.0" encoding="UTF-8" standalone="no"?>
<!DOCTYPE svg PUBLIC "-//W3C//DTD SVG 1.1//EN"
 "http://www.w3.org/Graphics/SVG/1.1/DTD/svg11.dtd">
<!-- Generated by graphviz version 2.40.1 (20161225.0304)
 -->
<!-- Title: /home/workdir/assets/artifacts_not_upsampled//tempDir/runtimes_visualization.svg Pages: 1 -->
<svg width="1096pt" height="793pt"
 viewBox="0.00 0.00 1096.00 792.80" xmlns="http://www.w3.org/2000/svg" xmlns:xlink="http://www.w3.org/1999/xlink">
<g id="graph0" class="graph" transform="scale(1 1) rotate(0) translate(468 778.4)">
<title>/home/workdir/assets/artifacts_not_upsampled//tempDir/runtimes_visualization.svg</title>
<polygon fill="#ffffff" stroke="transparent" points="-468,14.4 -468,-778.4 628,-778.4 628,14.4 -468,14.4"/>
<g id="clust1" class="cluster">
<title>cluster_0</title>
<path fill="none" stroke="#375588" stroke-width="2" d="M20,-27C20,-27 140,-27 140,-27 146,-27 152,-33 152,-39 152,-39 152,-725 152,-725 152,-731 146,-737 140,-737 140,-737 20,-737 20,-737 14,-737 8,-731 8,-725 8,-725 8,-39 8,-39 8,-33 14,-27 20,-27"/>
</g>
<!-- Name : /block1/conv1/Conv
Info :  -->
<g id="node1" class="node">
<title>Name : /block1/conv1/Conv
Info : </title>
<path fill="#375588" stroke="#000000" d="M89.6667,-729C89.6667,-729 48.3333,-729 48.3333,-729 45.1667,-729 42,-725.8333 42,-722.6667 42,-722.6667 42,-716.3333 42,-716.3333 42,-713.1667 45.1667,-710 48.3333,-710 48.3333,-710 89.6667,-710 89.6667,-710 92.8333,-710 96,-713.1667 96,-716.3333 96,-716.3333 96,-722.6667 96,-722.6667 96,-725.8333 92.8333,-729 89.6667,-729"/>
<text text-anchor="middle" x="69" y="-717" font-family="Times,serif" font-size="10.00" fill="#ffffff">0:Conv</text>
</g>
<!-- Name : /block1/gate/Relu
Info :  -->
<g id="node2" class="node">
<title>Name : /block1/gate/Relu
Info : </title>
<path fill="#375588" stroke="#000000" d="M89.6667,-702C89.6667,-702 48.3333,-702 48.3333,-702 45.1667,-702 42,-698.8333 42,-695.6667 42,-695.6667 42,-689.3333 42,-689.3333 42,-686.1667 45.1667,-683 48.3333,-683 48.3333,-683 89.6667,-683 89.6667,-683 92.8333,-683 96,-686.1667 96,-689.3333 96,-689.3333 96,-695.6667 96,-695.6667 96,-698.8333 92.8333,-702 89.6667,-702"/>
<text text-anchor="middle" x="69" y="-690" font-family="Times,serif" font-size="10.00" fill="#ffffff">1:Relu</text>
</g>
<!-- Name : /block1/conv1/Conv
Info : &#45;&gt;Name : /block1/gate/Relu
Info :  -->
<g id="edge1" class="edge">
<title>Name : /block1/conv1/Conv
Info : &#45;&gt;Name : /block1/gate/Relu
Info : </title>
<path fill="none" stroke="#000000" stroke-width=".7" d="M69,-709.7524C69,-708.9971 69,-708.2248 69,-707.4461"/>
<polygon fill="#000000" stroke="#000000" stroke-width=".7" points="69,-702.324 71.2501,-707.324 69,-704.824 69.0001,-707.324 69.0001,-707.324 69.0001,-707.324 69,-704.824 66.7501,-707.324 69,-702.324 69,-702.324"/>
</g>
<!-- Name : /block1/conv2/Conv
Info :  -->
<g id="node3" class="node">
<title>Name : /block1/conv2/Conv
Info : </title>
<path fill="#375588" stroke="#000000" d="M89.6667,-675C89.6667,-675 48.3333,-675 48.3333,-675 45.1667,-675 42,-671.8333 42,-668.6667 42,-668.6667 42,-662.3333 42,-662.3333 42,-659.1667 45.1667,-656 48.3333,-656 48.3333,-656 89.6667,-656 89.6667,-656 92.8333,-656 96,-659.1667 96,-662.3333 96,-662.3333 96,-668.6667 96,-668.6667 96,-671.8333 92.8333,-675 89.6667,-675"/>
<text text-anchor="middle" x="69" y="-663" font-family="Times,serif" font-size="10.00" fill="#ffffff">2:Conv</text>
</g>
<!-- Name : /block1/gate/Relu
Info : &#45;&gt;Name : /block1/conv2/Conv
Info :  -->
<g id="edge2" class="edge">
<title>Name : /block1/gate/Relu
Info : &#45;&gt;Name : /block1/conv2/Conv
Info : </title>
<path fill="none" stroke="#000000" stroke-width=".7" d="M69,-682.7524C69,-681.9971 69,-681.2248 69,-680.4461"/>
<polygon fill="#000000" stroke="#000000" stroke-width=".7" points="69,-675.324 71.2501,-680.324 69,-677.824 69.0001,-680.324 69.0001,-680.324 69.0001,-680.324 69,-677.824 66.7501,-680.324 69,-675.324 69,-675.324"/>
</g>
<!-- Name : /block1/gate_1/Relu
Info :  -->
<g id="node4" class="node">
<title>Name : /block1/gate_1/Relu
Info : </title>
<path fill="#375588" stroke="#000000" d="M89.6667,-648C89.6667,-648 48.3333,-648 48.3333,-648 45.1667,-648 42,-644.8333 42,-641.6667 42,-641.6667 42,-635.3333 42,-635.3333 42,-632.1667 45.1667,-629 48.3333,-629 48.3333,-629 89.6667,-629 89.6667,-629 92.8333,-629 96,-632.1667 96,-635.3333 96,-635.3333 96,-641.6667 96,-641.6667 96,-644.8333 92.8333,-648 89.6667,-648"/>
<text text-anchor="middle" x="69" y="-636" font-family="Times,serif" font-size="10.00" fill="#ffffff">3:Relu</text>
</g>
<!-- Name : /block1/conv2/Conv
Info : &#45;&gt;Name : /block1/gate_1/Relu
Info :  -->
<g id="edge3" class="edge">
<title>Name : /block1/conv2/Conv
Info : &#45;&gt;Name : /block1/gate_1/Relu
Info : </title>
<path fill="none" stroke="#000000" stroke-width=".7" d="M69,-655.7524C69,-654.9971 69,-654.2248 69,-653.4461"/>
<polygon fill="#000000" stroke="#000000" stroke-width=".7" points="69,-648.324 71.2501,-653.324 69,-650.824 69.0001,-653.324 69.0001,-653.324 69.0001,-653.324 69,-650.824 66.7501,-653.324 69,-648.324 69,-648.324"/>
</g>
<!-- Name : /pool2/MaxPool
Info :  -->
<g id="node5" class="node">
<title>Name : /pool2/MaxPool
Info : </title>
<path fill="#375588" stroke="#000000" d="M96.6667,-621C96.6667,-621 41.3333,-621 41.3333,-621 38.1667,-621 35,-617.8333 35,-614.6667 35,-614.6667 35,-608.3333 35,-608.3333 35,-605.1667 38.1667,-602 41.3333,-602 41.3333,-602 96.6667,-602 96.6667,-602 99.8333,-602 103,-605.1667 103,-608.3333 103,-608.3333 103,-614.6667 103,-614.6667 103,-617.8333 99.8333,-621 96.6667,-621"/>
<text text-anchor="middle" x="69" y="-609" font-family="Times,serif" font-size="10.00" fill="#ffffff">4:MaxPool</text>
</g>
<!-- Name : /block1/gate_1/Relu
Info : &#45;&gt;Name : /pool2/MaxPool
Info :  -->
<g id="edge4" class="edge">
<title>Name : /block1/gate_1/Relu
Info : &#45;&gt;Name : /pool2/MaxPool
Info : </title>
<path fill="none" stroke="#000000" stroke-width=".7" d="M69,-628.7524C69,-627.9971 69,-627.2248 69,-626.4461"/>
<polygon fill="#000000" stroke="#000000" stroke-width=".7" points="69,-621.324 71.2501,-626.324 69,-623.824 69.0001,-626.324 69.0001,-626.324 69.0001,-626.324 69,-623.824 66.7501,-626.324 69,-621.324 69,-621.324"/>
</g>
<!-- Name : /block2/conv1/Conv
Info :  -->
<g id="node6" class="node">
<title>Name : /block2/conv1/Conv
Info : </title>
<path fill="#375588" stroke="#000000" d="M69.6667,-594C69.6667,-594 28.3333,-594 28.3333,-594 25.1667,-594 22,-590.8333 22,-587.6667 22,-587.6667 22,-581.3333 22,-581.3333 22,-578.1667 25.1667,-575 28.3333,-575 28.3333,-575 69.6667,-575 69.6667,-575 72.8333,-575 76,-578.1667 76,-581.3333 76,-581.3333 76,-587.6667 76,-587.6667 76,-590.8333 72.8333,-594 69.6667,-594"/>
<text text-anchor="middle" x="49" y="-582" font-family="Times,serif" font-size="10.00" fill="#ffffff">5:Conv</text>
</g>
<!-- Name : /pool2/MaxPool
Info : &#45;&gt;Name : /block2/conv1/Conv
Info :  -->
<g id="edge5" class="edge">
<title>Name : /pool2/MaxPool
Info : &#45;&gt;Name : /block2/conv1/Conv
Info : </title>
<path fill="none" stroke="#000000" stroke-width=".7" d="M61.7795,-601.7524C60.9963,-600.695 60.1884,-599.6043 59.3771,-598.5091"/>
<polygon fill="#000000" stroke="#000000" stroke-width=".7" points="56.277,-594.324 61.0612,-597.0025 57.7651,-596.3329 59.2532,-598.3418 59.2532,-598.3418 59.2532,-598.3418 57.7651,-596.3329 57.4452,-599.6811 56.277,-594.324 56.277,-594.324"/>
</g>
<!-- Name : /block2/downsample/Conv
Info :  -->
<g id="node9" class="node">
<title>Name : /block2/downsample/Conv
Info : </title>
<path fill="#375588" stroke="#000000" d="M135.6667,-567C135.6667,-567 94.3333,-567 94.3333,-567 91.1667,-567 88,-563.8333 88,-560.6667 88,-560.6667 88,-554.3333 88,-554.3333 88,-551.1667 91.1667,-548 94.3333,-548 94.3333,-548 135.6667,-548 135.6667,-548 138.8333,-548 142,-551.1667 142,-554.3333 142,-554.3333 142,-560.6667 142,-560.6667 142,-563.8333 138.8333,-567 135.6667,-567"/>
<text text-anchor="middle" x="115" y="-555" font-family="Times,serif" font-size="10.00" fill="#ffffff">8:Conv</text>
</g>
<!-- Name : /pool2/MaxPool
Info : &#45;&gt;Name : /block2/downsample/Conv
Info :  -->
<g id="edge6" class="edge">
<title>Name : /pool2/MaxPool
Info : &#45;&gt;Name : /block2/downsample/Conv
Info : </title>
<path fill="none" stroke="#000000" stroke-width=".7" d="M77.8947,-601.9542C80.2333,-599.3949 82.7347,-596.6127 85,-594 91.4078,-586.6096 98.3555,-578.1843 103.9497,-571.2919"/>
<polygon fill="#000000" stroke="#000000" stroke-width=".7" points="107.241,-567.2215 105.8468,-572.5242 105.6691,-569.1655 104.0972,-571.1095 104.0972,-571.1095 104.0972,-571.1095 105.6691,-569.1655 102.3476,-569.6948 107.241,-567.2215 107.241,-567.2215"/>
</g>
<!-- Name : /block2/gate/Relu
Info :  -->
<g id="node7" class="node">
<title>Name : /block2/gate/Relu
Info : </title>
<path fill="#375588" stroke="#000000" d="M63.6667,-567C63.6667,-567 22.3333,-567 22.3333,-567 19.1667,-567 16,-563.8333 16,-560.6667 16,-560.6667 16,-554.3333 16,-554.3333 16,-551.1667 19.1667,-548 22.3333,-548 22.3333,-548 63.6667,-548 63.6667,-548 66.8333,-548 70,-551.1667 70,-554.3333 70,-554.3333 70,-560.6667 70,-560.6667 70,-563.8333 66.8333,-567 63.6667,-567"/>
<text text-anchor="middle" x="43" y="-555" font-family="Times,serif" font-size="10.00" fill="#ffffff">6:Relu</text>
</g>
<!-- Name : /block2/conv1/Conv
Info : &#45;&gt;Name : /block2/gate/Relu
Info :  -->
<g id="edge7" class="edge">
<title>Name : /block2/conv1/Conv
Info : &#45;&gt;Name : /block2/gate/Relu
Info : </title>
<path fill="none" stroke="#000000" stroke-width=".7" d="M46.8339,-574.7524C46.666,-573.9971 46.4944,-573.2248 46.3214,-572.4461"/>
<polygon fill="#000000" stroke="#000000" stroke-width=".7" points="45.1831,-567.324 48.4643,-571.7168 45.7255,-569.7645 46.2678,-572.2049 46.2678,-572.2049 46.2678,-572.2049 45.7255,-569.7645 44.0714,-572.6931 45.1831,-567.324 45.1831,-567.324"/>
</g>
<!-- Name : /block2/conv2/Conv
Info :  -->
<g id="node8" class="node">
<title>Name : /block2/conv2/Conv
Info : </title>
<path fill="#375588" stroke="#000000" d="M68.6667,-540C68.6667,-540 27.3333,-540 27.3333,-540 24.1667,-540 21,-536.8333 21,-533.6667 21,-533.6667 21,-527.3333 21,-527.3333 21,-524.1667 24.1667,-521 27.3333,-521 27.3333,-521 68.6667,-521 68.6667,-521 71.8333,-521 75,-524.1667 75,-527.3333 75,-527.3333 75,-533.6667 75,-533.6667 75,-536.8333 71.8333,-540 68.6667,-540"/>
<text text-anchor="middle" x="48" y="-528" font-family="Times,serif" font-size="10.00" fill="#ffffff">7:Conv</text>
</g>
<!-- Name : /block2/gate/Relu
Info : &#45;&gt;Name : /block2/conv2/Conv
Info :  -->
<g id="edge8" class="edge">
<title>Name : /block2/gate/Relu
Info : &#45;&gt;Name : /block2/conv2/Conv
Info : </title>
<path fill="none" stroke="#000000" stroke-width=".7" d="M44.8051,-547.7524C44.945,-546.9971 45.088,-546.2248 45.2322,-545.4461"/>
<polygon fill="#000000" stroke="#000000" stroke-width=".7" points="46.1807,-540.324 47.4826,-545.6501 45.7255,-542.7822 45.2702,-545.2404 45.2702,-545.2404 45.2702,-545.2404 45.7255,-542.7822 43.0578,-544.8307 46.1807,-540.324 46.1807,-540.324"/>
</g>
<!-- Name : /block2/Add
Info :  -->
<g id="node10" class="node">
<title>Name : /block2/Add
Info : </title>
<path fill="#375588" stroke="#000000" d="M92.6667,-513C92.6667,-513 51.3333,-513 51.3333,-513 48.1667,-513 45,-509.8333 45,-506.6667 45,-506.6667 45,-500.3333 45,-500.3333 45,-497.1667 48.1667,-494 51.3333,-494 51.3333,-494 92.6667,-494 92.6667,-494 95.8333,-494 99,-497.1667 99,-500.3333 99,-500.3333 99,-506.6667 99,-506.6667 99,-509.8333 95.8333,-513 92.6667,-513"/>
<text text-anchor="middle" x="72" y="-501" font-family="Times,serif" font-size="10.00" fill="#ffffff">9:Add</text>
</g>
<!-- Name : /block2/conv2/Conv
Info : &#45;&gt;Name : /block2/Add
Info :  -->
<g id="edge9" class="edge">
<title>Name : /block2/conv2/Conv
Info : &#45;&gt;Name : /block2/Add
Info : </title>
<path fill="none" stroke="#000000" stroke-width=".7" d="M56.6646,-520.7524C57.6044,-519.695 58.574,-518.6043 59.5475,-517.5091"/>
<polygon fill="#000000" stroke="#000000" stroke-width=".7" points="63.2676,-513.324 61.6274,-518.5559 61.6066,-515.1925 59.9457,-517.0611 59.9457,-517.0611 59.9457,-517.0611 61.6066,-515.1925 58.264,-515.5662 63.2676,-513.324 63.2676,-513.324"/>
</g>
<!-- Name : /block2/downsample/Conv
Info : &#45;&gt;Name : /block2/Add
Info :  -->
<g id="edge10" class="edge">
<title>Name : /block2/downsample/Conv
Info : &#45;&gt;Name : /block2/Add
Info : </title>
<path fill="none" stroke="#000000" stroke-width=".7" d="M107.1131,-547.5956C100.385,-539.1463 90.6354,-526.9026 83.1159,-517.4596"/>
<polygon fill="#000000" stroke="#000000" stroke-width=".7" points="79.8369,-513.3416 84.7117,-515.8515 81.3942,-515.2974 82.9515,-517.2531 82.9515,-517.2531 82.9515,-517.2531 81.3942,-515.2974 81.1914,-518.6547 79.8369,-513.3416 79.8369,-513.3416"/>
</g>
<!-- Name : /block2/gate_1/Relu
Info :  -->
<g id="node11" class="node">
<title>Name : /block2/gate_1/Relu
Info : </title>
<path fill="#375588" stroke="#000000" d="M92.6667,-486C92.6667,-486 51.3333,-486 51.3333,-486 48.1667,-486 45,-482.8333 45,-479.6667 45,-479.6667 45,-473.3333 45,-473.3333 45,-470.1667 48.1667,-467 51.3333,-467 51.3333,-467 92.6667,-467 92.6667,-467 95.8333,-467 99,-470.1667 99,-473.3333 99,-473.3333 99,-479.6667 99,-479.6667 99,-482.8333 95.8333,-486 92.6667,-486"/>
<text text-anchor="middle" x="72" y="-474" font-family="Times,serif" font-size="10.00" fill="#ffffff">10:Relu</text>
</g>
<!-- Name : /block2/Add
Info : &#45;&gt;Name : /block2/gate_1/Relu
Info :  -->
<g id="edge11" class="edge">
<title>Name : /block2/Add
Info : &#45;&gt;Name : /block2/gate_1/Relu
Info : </title>
<path fill="none" stroke="#000000" stroke-width=".7" d="M72,-493.7524C72,-492.9971 72,-492.2248 72,-491.4461"/>
<polygon fill="#000000" stroke="#000000" stroke-width=".7" points="72,-486.324 74.2501,-491.324 72,-488.824 72.0001,-491.324 72.0001,-491.324 72.0001,-491.324 72,-488.824 69.7501,-491.324 72,-486.324 72,-486.324"/>
</g>
<!-- Name : /pool4_1/MaxPool
Info :  -->
<g id="node12" class="node">
<title>Name : /pool4_1/MaxPool
Info : </title>
<path fill="#375588" stroke="#000000" d="M102.6667,-459C102.6667,-459 41.3333,-459 41.3333,-459 38.1667,-459 35,-455.8333 35,-452.6667 35,-452.6667 35,-446.3333 35,-446.3333 35,-443.1667 38.1667,-440 41.3333,-440 41.3333,-440 102.6667,-440 102.6667,-440 105.8333,-440 109,-443.1667 109,-446.3333 109,-446.3333 109,-452.6667 109,-452.6667 109,-455.8333 105.8333,-459 102.6667,-459"/>
<text text-anchor="middle" x="72" y="-447" font-family="Times,serif" font-size="10.00" fill="#ffffff">11:MaxPool</text>
</g>
<!-- Name : /block2/gate_1/Relu
Info : &#45;&gt;Name : /pool4_1/MaxPool
Info :  -->
<g id="edge12" class="edge">
<title>Name : /block2/gate_1/Relu
Info : &#45;&gt;Name : /pool4_1/MaxPool
Info : </title>
<path fill="none" stroke="#000000" stroke-width=".7" d="M72,-466.7524C72,-465.9971 72,-465.2248 72,-464.4461"/>
<polygon fill="#000000" stroke="#000000" stroke-width=".7" points="72,-459.324 74.2501,-464.324 72,-461.824 72.0001,-464.324 72.0001,-464.324 72.0001,-464.324 72,-461.824 69.7501,-464.324 72,-459.324 72,-459.324"/>
</g>
<!-- Name : /pool4_2/MaxPool
Info :  -->
<g id="node13" class="node">
<title>Name : /pool4_2/MaxPool
Info : </title>
<path fill="#375588" stroke="#000000" d="M102.6667,-432C102.6667,-432 41.3333,-432 41.3333,-432 38.1667,-432 35,-428.8333 35,-425.6667 35,-425.6667 35,-419.3333 35,-419.3333 35,-416.1667 38.1667,-413 41.3333,-413 41.3333,-413 102.6667,-413 102.6667,-413 105.8333,-413 109,-416.1667 109,-419.3333 109,-419.3333 109,-425.6667 109,-425.6667 109,-428.8333 105.8333,-432 102.6667,-432"/>
<text text-anchor="middle" x="72" y="-420" font-family="Times,serif" font-size="10.00" fill="#ffffff">12:MaxPool</text>
</g>
<!-- Name : /pool4_1/MaxPool
Info : &#45;&gt;Name : /pool4_2/MaxPool
Info :  -->
<g id="edge13" class="edge">
<title>Name : /pool4_1/MaxPool
Info : &#45;&gt;Name : /pool4_2/MaxPool
Info : </title>
<path fill="none" stroke="#000000" stroke-width=".7" d="M72,-439.7524C72,-438.9971 72,-438.2248 72,-437.4461"/>
<polygon fill="#000000" stroke="#000000" stroke-width=".7" points="72,-432.324 74.2501,-437.324 72,-434.824 72.0001,-437.324 72.0001,-437.324 72.0001,-437.324 72,-434.824 69.7501,-437.324 72,-432.324 72,-432.324"/>
</g>
<!-- Name : /block3/conv1/Conv
Info :  -->
<g id="node14" class="node">
<title>Name : /block3/conv1/Conv
Info : </title>
<path fill="#375588" stroke="#000000" d="M77.6667,-405C77.6667,-405 34.3333,-405 34.3333,-405 31.1667,-405 28,-401.8333 28,-398.6667 28,-398.6667 28,-392.3333 28,-392.3333 28,-389.1667 31.1667,-386 34.3333,-386 34.3333,-386 77.6667,-386 77.6667,-386 80.8333,-386 84,-389.1667 84,-392.3333 84,-392.3333 84,-398.6667 84,-398.6667 84,-401.8333 80.8333,-405 77.6667,-405"/>
<text text-anchor="middle" x="56" y="-393" font-family="Times,serif" font-size="10.00" fill="#ffffff">13:Conv</text>
</g>
<!-- Name : /pool4_2/MaxPool
Info : &#45;&gt;Name : /block3/conv1/Conv
Info :  -->
<g id="edge14" class="edge">
<title>Name : /pool4_2/MaxPool
Info : &#45;&gt;Name : /block3/conv1/Conv
Info : </title>
<path fill="none" stroke="#000000" stroke-width=".7" d="M66.2236,-412.7524C65.6866,-411.8461 65.135,-410.9153 64.5796,-409.9781"/>
<polygon fill="#000000" stroke="#000000" stroke-width=".7" points="61.8216,-405.324 66.3063,-408.4784 63.0962,-407.4747 64.3707,-409.6255 64.3707,-409.6255 64.3707,-409.6255 63.0962,-407.4747 62.435,-410.7725 61.8216,-405.324 61.8216,-405.324"/>
</g>
<!-- Name : /block3/downsample/Conv
Info :  -->
<g id="node17" class="node">
<title>Name : /block3/downsample/Conv
Info : </title>
<path fill="#375588" stroke="#000000" d="M137.6667,-378C137.6667,-378 94.3333,-378 94.3333,-378 91.1667,-378 88,-374.8333 88,-371.6667 88,-371.6667 88,-365.3333 88,-365.3333 88,-362.1667 91.1667,-359 94.3333,-359 94.3333,-359 137.6667,-359 137.6667,-359 140.8333,-359 144,-362.1667 144,-365.3333 144,-365.3333 144,-371.6667 144,-371.6667 144,-374.8333 140.8333,-378 137.6667,-378"/>
<text text-anchor="middle" x="116" y="-366" font-family="Times,serif" font-size="10.00" fill="#ffffff">16:Conv</text>
</g>
<!-- Name : /pool4_2/MaxPool
Info : &#45;&gt;Name : /block3/downsample/Conv
Info :  -->
<g id="edge15" class="edge">
<title>Name : /pool4_2/MaxPool
Info : &#45;&gt;Name : /block3/downsample/Conv
Info : </title>
<path fill="none" stroke="#000000" stroke-width=".7" d="M85.0224,-412.736C87.8079,-410.3584 90.624,-407.7136 93,-405 98.9333,-398.2238 104.3673,-389.7601 108.462,-382.6893"/>
<polygon fill="#000000" stroke="#000000" stroke-width=".7" points="111.0724,-378.0545 110.5791,-383.5152 109.8455,-380.2327 108.6186,-382.411 108.6186,-382.411 108.6186,-382.411 109.8455,-380.2327 106.6582,-381.3068 111.0724,-378.0545 111.0724,-378.0545"/>
</g>
<!-- Name : /block3/gate/Relu
Info :  -->
<g id="node15" class="node">
<title>Name : /block3/gate/Relu
Info : </title>
<path fill="#375588" stroke="#000000" d="M63.6667,-378C63.6667,-378 22.3333,-378 22.3333,-378 19.1667,-378 16,-374.8333 16,-371.6667 16,-371.6667 16,-365.3333 16,-365.3333 16,-362.1667 19.1667,-359 22.3333,-359 22.3333,-359 63.6667,-359 63.6667,-359 66.8333,-359 70,-362.1667 70,-365.3333 70,-365.3333 70,-371.6667 70,-371.6667 70,-374.8333 66.8333,-378 63.6667,-378"/>
<text text-anchor="middle" x="43" y="-366" font-family="Times,serif" font-size="10.00" fill="#ffffff">14:Relu</text>
</g>
<!-- Name : /block3/conv1/Conv
Info : &#45;&gt;Name : /block3/gate/Relu
Info :  -->
<g id="edge16" class="edge">
<title>Name : /block3/conv1/Conv
Info : &#45;&gt;Name : /block3/gate/Relu
Info : </title>
<path fill="none" stroke="#000000" stroke-width=".7" d="M51.3067,-385.7524C50.8703,-384.8461 50.4222,-383.9153 49.9709,-382.9781"/>
<polygon fill="#000000" stroke="#000000" stroke-width=".7" points="47.7301,-378.324 51.9265,-381.8529 48.8146,-380.5765 49.8992,-382.829 49.8992,-382.829 49.8992,-382.829 48.8146,-380.5765 47.8719,-383.8051 47.7301,-378.324 47.7301,-378.324"/>
</g>
<!-- Name : /block3/conv2/Conv
Info :  -->
<g id="node16" class="node">
<title>Name : /block3/conv2/Conv
Info : </title>
<path fill="#375588" stroke="#000000" d="M72.6667,-351C72.6667,-351 29.3333,-351 29.3333,-351 26.1667,-351 23,-347.8333 23,-344.6667 23,-344.6667 23,-338.3333 23,-338.3333 23,-335.1667 26.1667,-332 29.3333,-332 29.3333,-332 72.6667,-332 72.6667,-332 75.8333,-332 79,-335.1667 79,-338.3333 79,-338.3333 79,-344.6667 79,-344.6667 79,-347.8333 75.8333,-351 72.6667,-351"/>
<text text-anchor="middle" x="51" y="-339" font-family="Times,serif" font-size="10.00" fill="#ffffff">15:Conv</text>
</g>
<!-- Name : /block3/gate/Relu
Info : &#45;&gt;Name : /block3/conv2/Conv
Info :  -->
<g id="edge17" class="edge">
<title>Name : /block3/gate/Relu
Info : &#45;&gt;Name : /block3/conv2/Conv
Info : </title>
<path fill="none" stroke="#000000" stroke-width=".7" d="M45.8882,-358.7524C46.112,-357.9971 46.3408,-357.2248 46.5715,-356.4461"/>
<polygon fill="#000000" stroke="#000000" stroke-width=".7" points="48.0892,-351.324 48.826,-356.7572 47.3789,-353.721 46.6687,-356.118 46.6687,-356.118 46.6687,-356.118 47.3789,-353.721 44.5114,-355.4788 48.0892,-351.324 48.0892,-351.324"/>
</g>
<!-- Name : /block3/Add
Info :  -->
<g id="node18" class="node">
<title>Name : /block3/Add
Info : </title>
<path fill="#375588" stroke="#000000" d="M77.6667,-324C77.6667,-324 36.3333,-324 36.3333,-324 33.1667,-324 30,-320.8333 30,-317.6667 30,-317.6667 30,-311.3333 30,-311.3333 30,-308.1667 33.1667,-305 36.3333,-305 36.3333,-305 77.6667,-305 77.6667,-305 80.8333,-305 84,-308.1667 84,-311.3333 84,-311.3333 84,-317.6667 84,-317.6667 84,-320.8333 80.8333,-324 77.6667,-324"/>
<text text-anchor="middle" x="57" y="-312" font-family="Times,serif" font-size="10.00" fill="#ffffff">17:Add</text>
</g>
<!-- Name : /block3/conv2/Conv
Info : &#45;&gt;Name : /block3/Add
Info :  -->
<g id="edge18" class="edge">
<title>Name : /block3/conv2/Conv
Info : &#45;&gt;Name : /block3/Add
Info : </title>
<path fill="none" stroke="#000000" stroke-width=".7" d="M53.1661,-331.7524C53.334,-330.9971 53.5056,-330.2248 53.6786,-329.4461"/>
<polygon fill="#000000" stroke="#000000" stroke-width=".7" points="54.8169,-324.324 55.9286,-329.6931 54.2745,-326.7645 53.7322,-329.2049 53.7322,-329.2049 53.7322,-329.2049 54.2745,-326.7645 51.5357,-328.7168 54.8169,-324.324 54.8169,-324.324"/>
</g>
<!-- Name : /block3/downsample/Conv
Info : &#45;&gt;Name : /block3/Add
Info :  -->
<g id="edge19" class="edge">
<title>Name : /block3/downsample/Conv
Info : &#45;&gt;Name : /block3/Add
Info : </title>
<path fill="none" stroke="#000000" stroke-width=".7" d="M110.2258,-358.9493C105.1031,-351.0368 97.0446,-339.8558 88,-332 85.9003,-330.1763 83.5809,-328.453 81.1839,-326.8511"/>
<polygon fill="#000000" stroke="#000000" stroke-width=".7" points="76.8163,-324.1036 82.2466,-324.8615 78.9324,-325.4348 81.0485,-326.766 81.0485,-326.766 81.0485,-326.766 78.9324,-325.4348 79.8504,-328.6705 76.8163,-324.1036 76.8163,-324.1036"/>
</g>
<!-- Name : /block3/gate_1/Relu
Info :  -->
<g id="node19" class="node">
<title>Name : /block3/gate_1/Relu
Info : </title>
<path fill="#375588" stroke="#000000" d="M77.6667,-297C77.6667,-297 36.3333,-297 36.3333,-297 33.1667,-297 30,-293.8333 30,-290.6667 30,-290.6667 30,-284.3333 30,-284.3333 30,-281.1667 33.1667,-278 36.3333,-278 36.3333,-278 77.6667,-278 77.6667,-278 80.8333,-278 84,-281.1667 84,-284.3333 84,-284.3333 84,-290.6667 84,-290.6667 84,-293.8333 80.8333,-297 77.6667,-297"/>
<text text-anchor="middle" x="57" y="-285" font-family="Times,serif" font-size="10.00" fill="#ffffff">18:Relu</text>
</g>
<!-- Name : /block3/Add
Info : &#45;&gt;Name : /block3/gate_1/Relu
Info :  -->
<g id="edge20" class="edge">
<title>Name : /block3/Add
Info : &#45;&gt;Name : /block3/gate_1/Relu
Info : </title>
<path fill="none" stroke="#000000" stroke-width=".7" d="M57,-304.7524C57,-303.9971 57,-303.2248 57,-302.4461"/>
<polygon fill="#000000" stroke="#000000" stroke-width=".7" points="57,-297.324 59.2501,-302.324 57,-299.824 57.0001,-302.324 57.0001,-302.324 57.0001,-302.324 57,-299.824 54.7501,-302.324 57,-297.324 57,-297.324"/>
</g>
<!-- Name : /pool4_1_1/MaxPool
Info :  -->
<g id="node20" class="node">
<title>Name : /pool4_1_1/MaxPool
Info : </title>
<path fill="#375588" stroke="#000000" d="M87.6667,-270C87.6667,-270 26.3333,-270 26.3333,-270 23.1667,-270 20,-266.8333 20,-263.6667 20,-263.6667 20,-257.3333 20,-257.3333 20,-254.1667 23.1667,-251 26.3333,-251 26.3333,-251 87.6667,-251 87.6667,-251 90.8333,-251 94,-254.1667 94,-257.3333 94,-257.3333 94,-263.6667 94,-263.6667 94,-266.8333 90.8333,-270 87.6667,-270"/>
<text text-anchor="middle" x="57" y="-258" font-family="Times,serif" font-size="10.00" fill="#ffffff">19:MaxPool</text>
</g>
<!-- Name : /block3/gate_1/Relu
Info : &#45;&gt;Name : /pool4_1_1/MaxPool
Info :  -->
<g id="edge21" class="edge">
<title>Name : /block3/gate_1/Relu
Info : &#45;&gt;Name : /pool4_1_1/MaxPool
Info : </title>
<path fill="none" stroke="#000000" stroke-width=".7" d="M57,-277.7524C57,-276.9971 57,-276.2248 57,-275.4461"/>
<polygon fill="#000000" stroke="#000000" stroke-width=".7" points="57,-270.324 59.2501,-275.324 57,-272.824 57.0001,-275.324 57.0001,-275.324 57.0001,-275.324 57,-272.824 54.7501,-275.324 57,-270.324 57,-270.324"/>
</g>
<!-- Name : /pool4_2_1/MaxPool
Info :  -->
<g id="node21" class="node">
<title>Name : /pool4_2_1/MaxPool
Info : </title>
<path fill="#375588" stroke="#000000" d="M87.6667,-243C87.6667,-243 26.3333,-243 26.3333,-243 23.1667,-243 20,-239.8333 20,-236.6667 20,-236.6667 20,-230.3333 20,-230.3333 20,-227.1667 23.1667,-224 26.3333,-224 26.3333,-224 87.6667,-224 87.6667,-224 90.8333,-224 94,-227.1667 94,-230.3333 94,-230.3333 94,-236.6667 94,-236.6667 94,-239.8333 90.8333,-243 87.6667,-243"/>
<text text-anchor="middle" x="57" y="-231" font-family="Times,serif" font-size="10.00" fill="#ffffff">20:MaxPool</text>
</g>
<!-- Name : /pool4_1_1/MaxPool
Info : &#45;&gt;Name : /pool4_2_1/MaxPool
Info :  -->
<g id="edge22" class="edge">
<title>Name : /pool4_1_1/MaxPool
Info : &#45;&gt;Name : /pool4_2_1/MaxPool
Info : </title>
<path fill="none" stroke="#000000" stroke-width=".7" d="M57,-250.7524C57,-249.9971 57,-249.2248 57,-248.4461"/>
<polygon fill="#000000" stroke="#000000" stroke-width=".7" points="57,-243.324 59.2501,-248.324 57,-245.824 57.0001,-248.324 57.0001,-248.324 57.0001,-248.324 57,-245.824 54.7501,-248.324 57,-243.324 57,-243.324"/>
</g>
<!-- Name : /block4/conv1/Conv
Info :  -->
<g id="node22" class="node">
<title>Name : /block4/conv1/Conv
Info : </title>
<path fill="#375588" stroke="#000000" d="M71.6667,-216C71.6667,-216 28.3333,-216 28.3333,-216 25.1667,-216 22,-212.8333 22,-209.6667 22,-209.6667 22,-203.3333 22,-203.3333 22,-200.1667 25.1667,-197 28.3333,-197 28.3333,-197 71.6667,-197 71.6667,-197 74.8333,-197 78,-200.1667 78,-203.3333 78,-203.3333 78,-209.6667 78,-209.6667 78,-212.8333 74.8333,-216 71.6667,-216"/>
<text text-anchor="middle" x="50" y="-204" font-family="Times,serif" font-size="10.00" fill="#ffffff">21:Conv</text>
</g>
<!-- Name : /pool4_2_1/MaxPool
Info : &#45;&gt;Name : /block4/conv1/Conv
Info :  -->
<g id="edge23" class="edge">
<title>Name : /pool4_2_1/MaxPool
Info : &#45;&gt;Name : /block4/conv1/Conv
Info : </title>
<path fill="none" stroke="#000000" stroke-width=".7" d="M54.4728,-223.7524C54.277,-222.9971 54.0768,-222.2248 53.8749,-221.4461"/>
<polygon fill="#000000" stroke="#000000" stroke-width=".7" points="52.547,-216.324 55.9798,-220.5993 53.1744,-218.744 53.8018,-221.164 53.8018,-221.164 53.8018,-221.164 53.1744,-218.744 51.6238,-221.7287 52.547,-216.324 52.547,-216.324"/>
</g>
<!-- Name : /block4/downsample/Conv
Info :  -->
<g id="node25" class="node">
<title>Name : /block4/downsample/Conv
Info : </title>
<path fill="#375588" stroke="#000000" d="M137.6667,-189C137.6667,-189 94.3333,-189 94.3333,-189 91.1667,-189 88,-185.8333 88,-182.6667 88,-182.6667 88,-176.3333 88,-176.3333 88,-173.1667 91.1667,-170 94.3333,-170 94.3333,-170 137.6667,-170 137.6667,-170 140.8333,-170 144,-173.1667 144,-176.3333 144,-176.3333 144,-182.6667 144,-182.6667 144,-185.8333 140.8333,-189 137.6667,-189"/>
<text text-anchor="middle" x="116" y="-177" font-family="Times,serif" font-size="10.00" fill="#ffffff">24:Conv</text>
</g>
<!-- Name : /pool4_2_1/MaxPool
Info : &#45;&gt;Name : /block4/downsample/Conv
Info :  -->
<g id="edge24" class="edge">
<title>Name : /pool4_2_1/MaxPool
Info : &#45;&gt;Name : /block4/downsample/Conv
Info : </title>
<path fill="none" stroke="#000000" stroke-width=".7" d="M75.8147,-223.9706C79.6974,-221.6157 83.6271,-218.9211 87,-216 94.5997,-209.4183 101.6522,-200.63 106.8991,-193.3262"/>
<polygon fill="#000000" stroke="#000000" stroke-width=".7" points="109.9216,-189.0034 108.9005,-194.3904 108.489,-191.0523 107.0565,-193.1011 107.0565,-193.1011 107.0565,-193.1011 108.489,-191.0523 105.2125,-191.8119 109.9216,-189.0034 109.9216,-189.0034"/>
</g>
<!-- Name : /block4/gate/Relu
Info :  -->
<g id="node23" class="node">
<title>Name : /block4/gate/Relu
Info : </title>
<path fill="#375588" stroke="#000000" d="M63.6667,-189C63.6667,-189 22.3333,-189 22.3333,-189 19.1667,-189 16,-185.8333 16,-182.6667 16,-182.6667 16,-176.3333 16,-176.3333 16,-173.1667 19.1667,-170 22.3333,-170 22.3333,-170 63.6667,-170 63.6667,-170 66.8333,-170 70,-173.1667 70,-176.3333 70,-176.3333 70,-182.6667 70,-182.6667 70,-185.8333 66.8333,-189 63.6667,-189"/>
<text text-anchor="middle" x="43" y="-177" font-family="Times,serif" font-size="10.00" fill="#ffffff">22:Relu</text>
</g>
<!-- Name : /block4/conv1/Conv
Info : &#45;&gt;Name : /block4/gate/Relu
Info :  -->
<g id="edge25" class="edge">
<title>Name : /block4/conv1/Conv
Info : &#45;&gt;Name : /block4/gate/Relu
Info : </title>
<path fill="none" stroke="#000000" stroke-width=".7" d="M47.4728,-196.7524C47.277,-195.9971 47.0768,-195.2248 46.8749,-194.4461"/>
<polygon fill="#000000" stroke="#000000" stroke-width=".7" points="45.547,-189.324 48.9798,-193.5993 46.1744,-191.744 46.8018,-194.164 46.8018,-194.164 46.8018,-194.164 46.1744,-191.744 44.6238,-194.7287 45.547,-189.324 45.547,-189.324"/>
</g>
<!-- Name : /block4/conv2/Conv
Info :  -->
<g id="node24" class="node">
<title>Name : /block4/conv2/Conv
Info : </title>
<path fill="#375588" stroke="#000000" d="M77.6667,-162C77.6667,-162 34.3333,-162 34.3333,-162 31.1667,-162 28,-158.8333 28,-155.6667 28,-155.6667 28,-149.3333 28,-149.3333 28,-146.1667 31.1667,-143 34.3333,-143 34.3333,-143 77.6667,-143 77.6667,-143 80.8333,-143 84,-146.1667 84,-149.3333 84,-149.3333 84,-155.6667 84,-155.6667 84,-158.8333 80.8333,-162 77.6667,-162"/>
<text text-anchor="middle" x="56" y="-150" font-family="Times,serif" font-size="10.00" fill="#ffffff">23:Conv</text>
</g>
<!-- Name : /block4/gate/Relu
Info : &#45;&gt;Name : /block4/conv2/Conv
Info :  -->
<g id="edge26" class="edge">
<title>Name : /block4/gate/Relu
Info : &#45;&gt;Name : /block4/conv2/Conv
Info : </title>
<path fill="none" stroke="#000000" stroke-width=".7" d="M47.6933,-169.7524C48.1297,-168.8461 48.5778,-167.9153 49.0291,-166.9781"/>
<polygon fill="#000000" stroke="#000000" stroke-width=".7" points="51.2699,-162.324 51.1281,-167.8051 50.1854,-164.5765 49.1008,-166.829 49.1008,-166.829 49.1008,-166.829 50.1854,-164.5765 47.0735,-165.8529 51.2699,-162.324 51.2699,-162.324"/>
</g>
<!-- Name : /block4/Add
Info :  -->
<g id="node26" class="node">
<title>Name : /block4/Add
Info : </title>
<path fill="#375588" stroke="#000000" d="M102.6667,-135C102.6667,-135 61.3333,-135 61.3333,-135 58.1667,-135 55,-131.8333 55,-128.6667 55,-128.6667 55,-122.3333 55,-122.3333 55,-119.1667 58.1667,-116 61.3333,-116 61.3333,-116 102.6667,-116 102.6667,-116 105.8333,-116 109,-119.1667 109,-122.3333 109,-122.3333 109,-128.6667 109,-128.6667 109,-131.8333 105.8333,-135 102.6667,-135"/>
<text text-anchor="middle" x="82" y="-123" font-family="Times,serif" font-size="10.00" fill="#ffffff">25:Add</text>
</g>
<!-- Name : /block4/conv2/Conv
Info : &#45;&gt;Name : /block4/Add
Info :  -->
<g id="edge27" class="edge">
<title>Name : /block4/conv2/Conv
Info : &#45;&gt;Name : /block4/Add
Info : </title>
<path fill="none" stroke="#000000" stroke-width=".7" d="M65.3866,-142.7524C66.5503,-141.544 67.7559,-140.292 68.9619,-139.0396"/>
<polygon fill="#000000" stroke="#000000" stroke-width=".7" points="72.5399,-135.324 70.6923,-140.4863 70.8057,-137.1248 69.0716,-138.9256 69.0716,-138.9256 69.0716,-138.9256 70.8057,-137.1248 67.4509,-137.3649 72.5399,-135.324 72.5399,-135.324"/>
</g>
<!-- Name : /block4/downsample/Conv
Info : &#45;&gt;Name : /block4/Add
Info :  -->
<g id="edge28" class="edge">
<title>Name : /block4/downsample/Conv
Info : &#45;&gt;Name : /block4/Add
Info : </title>
<path fill="none" stroke="#000000" stroke-width=".7" d="M109.7639,-169.5956C104.4919,-161.2224 96.8737,-149.1229 90.9505,-139.7154"/>
<polygon fill="#000000" stroke="#000000" stroke-width=".7" points="88.1966,-135.3416 92.7647,-138.374 89.5286,-137.4572 90.8607,-139.5728 90.8607,-139.5728 90.8607,-139.5728 89.5286,-137.4572 88.9567,-140.7717 88.1966,-135.3416 88.1966,-135.3416"/>
</g>
<!-- Name : /block4/gate_1/Relu
Info :  -->
<g id="node27" class="node">
<title>Name : /block4/gate_1/Relu
Info : </title>
<path fill="#375588" stroke="#000000" d="M102.6667,-108C102.6667,-108 61.3333,-108 61.3333,-108 58.1667,-108 55,-104.8333 55,-101.6667 55,-101.6667 55,-95.3333 55,-95.3333 55,-92.1667 58.1667,-89 61.3333,-89 61.3333,-89 102.6667,-89 102.6667,-89 105.8333,-89 109,-92.1667 109,-95.3333 109,-95.3333 109,-101.6667 109,-101.6667 109,-104.8333 105.8333,-108 102.6667,-108"/>
<text text-anchor="middle" x="82" y="-96" font-family="Times,serif" font-size="10.00" fill="#ffffff">26:Relu</text>
</g>
<!-- Name : /block4/Add
Info : &#45;&gt;Name : /block4/gate_1/Relu
Info :  -->
<g id="edge29" class="edge">
<title>Name : /block4/Add
Info : &#45;&gt;Name : /block4/gate_1/Relu
Info : </title>
<path fill="none" stroke="#000000" stroke-width=".7" d="M82,-115.7524C82,-114.9971 82,-114.2248 82,-113.4461"/>
<polygon fill="#000000" stroke="#000000" stroke-width=".7" points="82,-108.324 84.2501,-113.324 82,-110.824 82.0001,-113.324 82.0001,-113.324 82.0001,-113.324 82,-110.824 79.7501,-113.324 82,-108.324 82,-108.324"/>
</g>
<!-- Name : /conv4/Conv
Info :  -->
<g id="node28" class="node">
<title>Name : /conv4/Conv
Info : </title>
<path fill="#375588" stroke="#000000" d="M103.6667,-81C103.6667,-81 60.3333,-81 60.3333,-81 57.1667,-81 54,-77.8333 54,-74.6667 54,-74.6667 54,-68.3333 54,-68.3333 54,-65.1667 57.1667,-62 60.3333,-62 60.3333,-62 103.6667,-62 103.6667,-62 106.8333,-62 110,-65.1667 110,-68.3333 110,-68.3333 110,-74.6667 110,-74.6667 110,-77.8333 106.8333,-81 103.6667,-81"/>
<text text-anchor="middle" x="82" y="-69" font-family="Times,serif" font-size="10.00" fill="#ffffff">27:Conv</text>
</g>
<!-- Name : /block4/gate_1/Relu
Info : &#45;&gt;Name : /conv4/Conv
Info :  -->
<g id="edge30" class="edge">
<title>Name : /block4/gate_1/Relu
Info : &#45;&gt;Name : /conv4/Conv
Info : </title>
<path fill="none" stroke="#000000" stroke-width=".7" d="M82,-88.7524C82,-87.9971 82,-87.2248 82,-86.4461"/>
<polygon fill="#000000" stroke="#000000" stroke-width=".7" points="82,-81.324 84.2501,-86.324 82,-83.824 82.0001,-86.324 82.0001,-86.324 82.0001,-86.324 82,-83.824 79.7501,-86.324 82,-81.324 82,-81.324"/>
</g>
<!-- Name : /gate/Relu
Info :  -->
<g id="node29" class="node">
<title>Name : /gate/Relu
Info : </title>
<path fill="#375588" stroke="#000000" d="M102.6667,-54C102.6667,-54 61.3333,-54 61.3333,-54 58.1667,-54 55,-50.8333 55,-47.6667 55,-47.6667 55,-41.3333 55,-41.3333 55,-38.1667 58.1667,-35 61.3333,-35 61.3333,-35 102.6667,-35 102.6667,-35 105.8333,-35 109,-38.1667 109,-41.3333 109,-41.3333 109,-47.6667 109,-47.6667 109,-50.8333 105.8333,-54 102.6667,-54"/>
<text text-anchor="middle" x="82" y="-42" font-family="Times,serif" font-size="10.00" fill="#ffffff">28:Relu</text>
</g>
<!-- Name : /conv4/Conv
Info : &#45;&gt;Name : /gate/Relu
Info :  -->
<g id="edge31" class="edge">
<title>Name : /conv4/Conv
Info : &#45;&gt;Name : /gate/Relu
Info : </title>
<path fill="none" stroke="#000000" stroke-width=".7" d="M82,-61.7524C82,-60.9971 82,-60.2248 82,-59.4461"/>
<polygon fill="#000000" stroke="#000000" stroke-width=".7" points="82,-54.324 84.2501,-59.324 82,-56.824 82.0001,-59.324 82.0001,-59.324 82.0001,-59.324 82,-56.824 79.7501,-59.324 82,-54.324 82,-54.324"/>
</g>
<!-- Output : 28 -->
<g id="node31" class="node">
<title>Output : 28</title>
<path fill="#000000" stroke="#000000" d="M102.6667,-19C102.6667,-19 61.3333,-19 61.3333,-19 58.1667,-19 55,-15.8333 55,-12.6667 55,-12.6667 55,-6.3333 55,-6.3333 55,-3.1667 58.1667,0 61.3333,0 61.3333,0 102.6667,0 102.6667,0 105.8333,0 109,-3.1667 109,-6.3333 109,-6.3333 109,-12.6667 109,-12.6667 109,-15.8333 105.8333,-19 102.6667,-19"/>
<text text-anchor="middle" x="82" y="-7" font-family="Times,serif" font-size="10.00" fill="#ffffff">Output</text>
</g>
<!-- Name : /gate/Relu
Info : &#45;&gt;Output : 28 -->
<g id="edge33" class="edge">
<title>Name : /gate/Relu
Info : &#45;&gt;Output : 28</title>
<path fill="none" stroke="#000000" stroke-width=".7" d="M82,-34.9361C82,-31.7483 82,-28.1148 82,-24.6114"/>
<polygon fill="#000000" stroke="#000000" stroke-width=".7" points="82,-19.296 84.2501,-24.2959 82,-21.796 82.0001,-24.296 82.0001,-24.296 82.0001,-24.296 82,-21.796 79.7501,-24.296 82,-19.296 82,-19.296"/>
</g>
<!-- Input : 0 -->
<g id="node30" class="node">
<title>Input : 0</title>
<path fill="#000000" stroke="#000000" d="M89.6667,-764C89.6667,-764 48.3333,-764 48.3333,-764 45.1667,-764 42,-760.8333 42,-757.6667 42,-757.6667 42,-751.3333 42,-751.3333 42,-748.1667 45.1667,-745 48.3333,-745 48.3333,-745 89.6667,-745 89.6667,-745 92.8333,-745 96,-748.1667 96,-751.3333 96,-751.3333 96,-757.6667 96,-757.6667 96,-760.8333 92.8333,-764 89.6667,-764"/>
<text text-anchor="middle" x="69" y="-752" font-family="Times,serif" font-size="10.00" fill="#ffffff">Input</text>
</g>
<!-- Input : 0&#45;&gt;Name : /block1/conv1/Conv
Info :  -->
<g id="edge32" class="edge">
<title>Input : 0&#45;&gt;Name : /block1/conv1/Conv
Info : </title>
<path fill="none" stroke="#000000" stroke-width=".7" d="M69,-744.9361C69,-741.7483 69,-738.1148 69,-734.6114"/>
<polygon fill="#000000" stroke="#000000" stroke-width=".7" points="69,-729.296 71.2501,-734.2959 69,-731.796 69.0001,-734.296 69.0001,-734.296 69.0001,-734.296 69,-731.796 66.7501,-734.296 69,-729.296 69,-729.296"/>
</g>
</g>
</svg>
