<?xml version="1.0" encoding="UTF-8" standalone="no"?>
<!DOCTYPE svg PUBLIC "-//W3C//DTD SVG 1.1//EN"
 "http://www.w3.org/Graphics/SVG/1.1/DTD/svg11.dtd">
<!-- Generated by graphviz version 2.40.1 (20161225.0304)
 -->
<!-- Title: /home/workdir/assets/artifacts/tempDir/runtimes_visualization.svg Pages: 1 -->
<svg width="1222pt" height="928pt"
 viewBox="0.00 0.00 1222.00 927.80" xmlns="http://www.w3.org/2000/svg" xmlns:xlink="http://www.w3.org/1999/xlink">
<g id="graph0" class="graph" transform="scale(1 1) rotate(0) translate(468 913.4)">
<title>/home/workdir/assets/artifacts/tempDir/runtimes_visualization.svg</title>
<polygon fill="#ffffff" stroke="transparent" points="-468,14.4 -468,-913.4 754,-913.4 754,14.4 -468,14.4"/>
<g id="clust1" class="cluster">
<title>cluster_0</title>
<path fill="none" stroke="#375588" stroke-width="2" d="M20,-27C20,-27 212,-27 212,-27 218,-27 224,-33 224,-39 224,-39 224,-860 224,-860 224,-866 218,-872 212,-872 212,-872 20,-872 20,-872 14,-872 8,-866 8,-860 8,-860 8,-39 8,-39 8,-33 14,-27 20,-27"/>
</g>
<!-- Name : /block1/conv1/Conv
Info :  -->
<g id="node1" class="node">
<title>Name : /block1/conv1/Conv
Info : </title>
<path fill="#375588" stroke="#000000" d="M166.6667,-864C166.6667,-864 125.3333,-864 125.3333,-864 122.1667,-864 119,-860.8333 119,-857.6667 119,-857.6667 119,-851.3333 119,-851.3333 119,-848.1667 122.1667,-845 125.3333,-845 125.3333,-845 166.6667,-845 166.6667,-845 169.8333,-845 173,-848.1667 173,-851.3333 173,-851.3333 173,-857.6667 173,-857.6667 173,-860.8333 169.8333,-864 166.6667,-864"/>
<text text-anchor="middle" x="146" y="-852" font-family="Times,serif" font-size="10.00" fill="#ffffff">0:Conv</text>
</g>
<!-- Name : /block1/gate/Relu
Info :  -->
<g id="node2" class="node">
<title>Name : /block1/gate/Relu
Info : </title>
<path fill="#375588" stroke="#000000" d="M166.6667,-837C166.6667,-837 125.3333,-837 125.3333,-837 122.1667,-837 119,-833.8333 119,-830.6667 119,-830.6667 119,-824.3333 119,-824.3333 119,-821.1667 122.1667,-818 125.3333,-818 125.3333,-818 166.6667,-818 166.6667,-818 169.8333,-818 173,-821.1667 173,-824.3333 173,-824.3333 173,-830.6667 173,-830.6667 173,-833.8333 169.8333,-837 166.6667,-837"/>
<text text-anchor="middle" x="146" y="-825" font-family="Times,serif" font-size="10.00" fill="#ffffff">1:Relu</text>
</g>
<!-- Name : /block1/conv1/Conv
Info : &#45;&gt;Name : /block1/gate/Relu
Info :  -->
<g id="edge1" class="edge">
<title>Name : /block1/conv1/Conv
Info : &#45;&gt;Name : /block1/gate/Relu
Info : </title>
<path fill="none" stroke="#000000" stroke-width=".7" d="M146,-844.7524C146,-843.9971 146,-843.2248 146,-842.4461"/>
<polygon fill="#000000" stroke="#000000" stroke-width=".7" points="146,-837.324 148.2501,-842.324 146,-839.824 146.0001,-842.324 146.0001,-842.324 146.0001,-842.324 146,-839.824 143.7501,-842.324 146,-837.324 146,-837.324"/>
</g>
<!-- Name : /block1/conv2/Conv
Info :  -->
<g id="node3" class="node">
<title>Name : /block1/conv2/Conv
Info : </title>
<path fill="#375588" stroke="#000000" d="M166.6667,-810C166.6667,-810 125.3333,-810 125.3333,-810 122.1667,-810 119,-806.8333 119,-803.6667 119,-803.6667 119,-797.3333 119,-797.3333 119,-794.1667 122.1667,-791 125.3333,-791 125.3333,-791 166.6667,-791 166.6667,-791 169.8333,-791 173,-794.1667 173,-797.3333 173,-797.3333 173,-803.6667 173,-803.6667 173,-806.8333 169.8333,-810 166.6667,-810"/>
<text text-anchor="middle" x="146" y="-798" font-family="Times,serif" font-size="10.00" fill="#ffffff">2:Conv</text>
</g>
<!-- Name : /block1/gate/Relu
Info : &#45;&gt;Name : /block1/conv2/Conv
Info :  -->
<g id="edge2" class="edge">
<title>Name : /block1/gate/Relu
Info : &#45;&gt;Name : /block1/conv2/Conv
Info : </title>
<path fill="none" stroke="#000000" stroke-width=".7" d="M146,-817.7524C146,-816.9971 146,-816.2248 146,-815.4461"/>
<polygon fill="#000000" stroke="#000000" stroke-width=".7" points="146,-810.324 148.2501,-815.324 146,-812.824 146.0001,-815.324 146.0001,-815.324 146.0001,-815.324 146,-812.824 143.7501,-815.324 146,-810.324 146,-810.324"/>
</g>
<!-- Name : /block1/gate_1/Relu
Info :  -->
<g id="node4" class="node">
<title>Name : /block1/gate_1/Relu
Info : </title>
<path fill="#375588" stroke="#000000" d="M166.6667,-783C166.6667,-783 125.3333,-783 125.3333,-783 122.1667,-783 119,-779.8333 119,-776.6667 119,-776.6667 119,-770.3333 119,-770.3333 119,-767.1667 122.1667,-764 125.3333,-764 125.3333,-764 166.6667,-764 166.6667,-764 169.8333,-764 173,-767.1667 173,-770.3333 173,-770.3333 173,-776.6667 173,-776.6667 173,-779.8333 169.8333,-783 166.6667,-783"/>
<text text-anchor="middle" x="146" y="-771" font-family="Times,serif" font-size="10.00" fill="#ffffff">3:Relu</text>
</g>
<!-- Name : /block1/conv2/Conv
Info : &#45;&gt;Name : /block1/gate_1/Relu
Info :  -->
<g id="edge3" class="edge">
<title>Name : /block1/conv2/Conv
Info : &#45;&gt;Name : /block1/gate_1/Relu
Info : </title>
<path fill="none" stroke="#000000" stroke-width=".7" d="M146,-790.7524C146,-789.9971 146,-789.2248 146,-788.4461"/>
<polygon fill="#000000" stroke="#000000" stroke-width=".7" points="146,-783.324 148.2501,-788.324 146,-785.824 146.0001,-788.324 146.0001,-788.324 146.0001,-788.324 146,-785.824 143.7501,-788.324 146,-783.324 146,-783.324"/>
</g>
<!-- Name : /pool2/MaxPool
Info :  -->
<g id="node5" class="node">
<title>Name : /pool2/MaxPool
Info : </title>
<path fill="#375588" stroke="#000000" d="M142.6667,-756C142.6667,-756 87.3333,-756 87.3333,-756 84.1667,-756 81,-752.8333 81,-749.6667 81,-749.6667 81,-743.3333 81,-743.3333 81,-740.1667 84.1667,-737 87.3333,-737 87.3333,-737 142.6667,-737 142.6667,-737 145.8333,-737 149,-740.1667 149,-743.3333 149,-743.3333 149,-749.6667 149,-749.6667 149,-752.8333 145.8333,-756 142.6667,-756"/>
<text text-anchor="middle" x="115" y="-744" font-family="Times,serif" font-size="10.00" fill="#ffffff">4:MaxPool</text>
</g>
<!-- Name : /block1/gate_1/Relu
Info : &#45;&gt;Name : /pool2/MaxPool
Info :  -->
<g id="edge4" class="edge">
<title>Name : /block1/gate_1/Relu
Info : &#45;&gt;Name : /pool2/MaxPool
Info : </title>
<path fill="none" stroke="#000000" stroke-width=".7" d="M134.8083,-763.7524C133.3341,-762.4684 131.8035,-761.1353 130.2758,-759.8047"/>
<polygon fill="#000000" stroke="#000000" stroke-width=".7" points="126.2794,-756.324 131.5276,-757.9112 128.1646,-757.966 130.0498,-759.6079 130.0498,-759.6079 130.0498,-759.6079 128.1646,-757.966 128.5721,-761.3046 126.2794,-756.324 126.2794,-756.324"/>
</g>
<!-- Name : /conv1/Conv
Info :  -->
<g id="node37" class="node">
<title>Name : /conv1/Conv
Info : </title>
<path fill="#375588" stroke="#000000" d="M209.6667,-729C209.6667,-729 166.3333,-729 166.3333,-729 163.1667,-729 160,-725.8333 160,-722.6667 160,-722.6667 160,-716.3333 160,-716.3333 160,-713.1667 163.1667,-710 166.3333,-710 166.3333,-710 209.6667,-710 209.6667,-710 212.8333,-710 216,-713.1667 216,-716.3333 216,-716.3333 216,-722.6667 216,-722.6667 216,-725.8333 212.8333,-729 209.6667,-729"/>
<text text-anchor="middle" x="188" y="-717" font-family="Times,serif" font-size="10.00" fill="#ffffff">36:Conv</text>
</g>
<!-- Name : /block1/gate_1/Relu
Info : &#45;&gt;Name : /conv1/Conv
Info :  -->
<g id="edge5" class="edge">
<title>Name : /block1/gate_1/Relu
Info : &#45;&gt;Name : /conv1/Conv
Info : </title>
<path fill="none" stroke="#000000" stroke-width=".7" d="M153.7034,-763.5956C160.2751,-755.1463 169.798,-742.9026 177.1426,-733.4596"/>
<polygon fill="#000000" stroke="#000000" stroke-width=".7" points="180.3454,-729.3416 179.0517,-734.6698 178.8105,-731.315 177.2756,-733.2884 177.2756,-733.2884 177.2756,-733.2884 178.8105,-731.315 175.4996,-731.907 180.3454,-729.3416 180.3454,-729.3416"/>
</g>
<!-- Name : /block2/downsample/Conv
Info :  -->
<g id="node6" class="node">
<title>Name : /block2/downsample/Conv
Info : </title>
<path fill="#375588" stroke="#000000" d="M70.6667,-702C70.6667,-702 29.3333,-702 29.3333,-702 26.1667,-702 23,-698.8333 23,-695.6667 23,-695.6667 23,-689.3333 23,-689.3333 23,-686.1667 26.1667,-683 29.3333,-683 29.3333,-683 70.6667,-683 70.6667,-683 73.8333,-683 77,-686.1667 77,-689.3333 77,-689.3333 77,-695.6667 77,-695.6667 77,-698.8333 73.8333,-702 70.6667,-702"/>
<text text-anchor="middle" x="50" y="-690" font-family="Times,serif" font-size="10.00" fill="#ffffff">5:Conv</text>
</g>
<!-- Name : /pool2/MaxPool
Info : &#45;&gt;Name : /block2/downsample/Conv
Info :  -->
<g id="edge6" class="edge">
<title>Name : /pool2/MaxPool
Info : &#45;&gt;Name : /block2/downsample/Conv
Info : </title>
<path fill="none" stroke="#000000" stroke-width=".7" d="M91.2352,-736.8316C86.9546,-734.577 82.6865,-731.9564 79,-729 71.157,-722.7102 64.0974,-713.9305 58.9074,-706.5583"/>
<polygon fill="#000000" stroke="#000000" stroke-width=".7" points="55.9273,-702.1847 60.6022,-705.0497 57.3351,-704.2507 58.7428,-706.3167 58.7428,-706.3167 58.7428,-706.3167 57.3351,-704.2507 56.8835,-707.5836 55.9273,-702.1847 55.9273,-702.1847"/>
</g>
<!-- Name : /block2/conv1/Conv
Info :  -->
<g id="node7" class="node">
<title>Name : /block2/conv1/Conv
Info : </title>
<path fill="#375588" stroke="#000000" d="M135.6667,-729C135.6667,-729 94.3333,-729 94.3333,-729 91.1667,-729 88,-725.8333 88,-722.6667 88,-722.6667 88,-716.3333 88,-716.3333 88,-713.1667 91.1667,-710 94.3333,-710 94.3333,-710 135.6667,-710 135.6667,-710 138.8333,-710 142,-713.1667 142,-716.3333 142,-716.3333 142,-722.6667 142,-722.6667 142,-725.8333 138.8333,-729 135.6667,-729"/>
<text text-anchor="middle" x="115" y="-717" font-family="Times,serif" font-size="10.00" fill="#ffffff">6:Conv</text>
</g>
<!-- Name : /pool2/MaxPool
Info : &#45;&gt;Name : /block2/conv1/Conv
Info :  -->
<g id="edge7" class="edge">
<title>Name : /pool2/MaxPool
Info : &#45;&gt;Name : /block2/conv1/Conv
Info : </title>
<path fill="none" stroke="#000000" stroke-width=".7" d="M115,-736.7524C115,-735.9971 115,-735.2248 115,-734.4461"/>
<polygon fill="#000000" stroke="#000000" stroke-width=".7" points="115,-729.324 117.2501,-734.324 115,-731.824 115.0001,-734.324 115.0001,-734.324 115.0001,-734.324 115,-731.824 112.7501,-734.324 115,-729.324 115,-729.324"/>
</g>
<!-- Name : /block2/Add
Info :  -->
<g id="node10" class="node">
<title>Name : /block2/Add
Info : </title>
<path fill="#375588" stroke="#000000" d="M126.6667,-648C126.6667,-648 85.3333,-648 85.3333,-648 82.1667,-648 79,-644.8333 79,-641.6667 79,-641.6667 79,-635.3333 79,-635.3333 79,-632.1667 82.1667,-629 85.3333,-629 85.3333,-629 126.6667,-629 126.6667,-629 129.8333,-629 133,-632.1667 133,-635.3333 133,-635.3333 133,-641.6667 133,-641.6667 133,-644.8333 129.8333,-648 126.6667,-648"/>
<text text-anchor="middle" x="106" y="-636" font-family="Times,serif" font-size="10.00" fill="#ffffff">9:Add</text>
</g>
<!-- Name : /block2/downsample/Conv
Info : &#45;&gt;Name : /block2/Add
Info :  -->
<g id="edge8" class="edge">
<title>Name : /block2/downsample/Conv
Info : &#45;&gt;Name : /block2/Add
Info : </title>
<path fill="none" stroke="#000000" stroke-width=".7" d="M56.716,-682.8518C62.3927,-675.0881 71.0158,-664.1644 80,-656 81.8171,-654.3487 83.8014,-652.7358 85.8376,-651.1991"/>
<polygon fill="#000000" stroke="#000000" stroke-width=".7" points="90.0529,-648.1639 87.3101,-652.9115 88.0241,-649.6247 85.9953,-651.0856 85.9953,-651.0856 85.9953,-651.0856 88.0241,-649.6247 84.6805,-649.2597 90.0529,-648.1639 90.0529,-648.1639"/>
</g>
<!-- Name : /block2/gate/Relu
Info :  -->
<g id="node8" class="node">
<title>Name : /block2/gate/Relu
Info : </title>
<path fill="#375588" stroke="#000000" d="M142.6667,-702C142.6667,-702 101.3333,-702 101.3333,-702 98.1667,-702 95,-698.8333 95,-695.6667 95,-695.6667 95,-689.3333 95,-689.3333 95,-686.1667 98.1667,-683 101.3333,-683 101.3333,-683 142.6667,-683 142.6667,-683 145.8333,-683 149,-686.1667 149,-689.3333 149,-689.3333 149,-695.6667 149,-695.6667 149,-698.8333 145.8333,-702 142.6667,-702"/>
<text text-anchor="middle" x="122" y="-690" font-family="Times,serif" font-size="10.00" fill="#ffffff">7:Relu</text>
</g>
<!-- Name : /block2/conv1/Conv
Info : &#45;&gt;Name : /block2/gate/Relu
Info :  -->
<g id="edge9" class="edge">
<title>Name : /block2/conv1/Conv
Info : &#45;&gt;Name : /block2/gate/Relu
Info : </title>
<path fill="none" stroke="#000000" stroke-width=".7" d="M117.5272,-709.7524C117.723,-708.9971 117.9232,-708.2248 118.1251,-707.4461"/>
<polygon fill="#000000" stroke="#000000" stroke-width=".7" points="119.453,-702.324 120.3762,-707.7287 118.8256,-704.744 118.1982,-707.164 118.1982,-707.164 118.1982,-707.164 118.8256,-704.744 116.0202,-706.5993 119.453,-702.324 119.453,-702.324"/>
</g>
<!-- Name : /block2/conv2/Conv
Info :  -->
<g id="node9" class="node">
<title>Name : /block2/conv2/Conv
Info : </title>
<path fill="#375588" stroke="#000000" d="M136.6667,-675C136.6667,-675 95.3333,-675 95.3333,-675 92.1667,-675 89,-671.8333 89,-668.6667 89,-668.6667 89,-662.3333 89,-662.3333 89,-659.1667 92.1667,-656 95.3333,-656 95.3333,-656 136.6667,-656 136.6667,-656 139.8333,-656 143,-659.1667 143,-662.3333 143,-662.3333 143,-668.6667 143,-668.6667 143,-671.8333 139.8333,-675 136.6667,-675"/>
<text text-anchor="middle" x="116" y="-663" font-family="Times,serif" font-size="10.00" fill="#ffffff">8:Conv</text>
</g>
<!-- Name : /block2/gate/Relu
Info : &#45;&gt;Name : /block2/conv2/Conv
Info :  -->
<g id="edge10" class="edge">
<title>Name : /block2/gate/Relu
Info : &#45;&gt;Name : /block2/conv2/Conv
Info : </title>
<path fill="none" stroke="#000000" stroke-width=".7" d="M119.8339,-682.7524C119.666,-681.9971 119.4944,-681.2248 119.3214,-680.4461"/>
<polygon fill="#000000" stroke="#000000" stroke-width=".7" points="118.1831,-675.324 121.4643,-679.7168 118.7255,-677.7645 119.2678,-680.2049 119.2678,-680.2049 119.2678,-680.2049 118.7255,-677.7645 117.0714,-680.6931 118.1831,-675.324 118.1831,-675.324"/>
</g>
<!-- Name : /block2/conv2/Conv
Info : &#45;&gt;Name : /block2/Add
Info :  -->
<g id="edge11" class="edge">
<title>Name : /block2/conv2/Conv
Info : &#45;&gt;Name : /block2/Add
Info : </title>
<path fill="none" stroke="#000000" stroke-width=".7" d="M112.3898,-655.7524C112.11,-654.9971 111.824,-654.2248 111.5356,-653.4461"/>
<polygon fill="#000000" stroke="#000000" stroke-width=".7" points="109.6385,-648.324 113.4851,-652.2313 110.5068,-650.6684 111.3751,-653.0127 111.3751,-653.0127 111.3751,-653.0127 110.5068,-650.6684 109.2652,-653.7942 109.6385,-648.324 109.6385,-648.324"/>
</g>
<!-- Name : /block2/gate_1/Relu
Info :  -->
<g id="node11" class="node">
<title>Name : /block2/gate_1/Relu
Info : </title>
<path fill="#375588" stroke="#000000" d="M126.6667,-621C126.6667,-621 85.3333,-621 85.3333,-621 82.1667,-621 79,-617.8333 79,-614.6667 79,-614.6667 79,-608.3333 79,-608.3333 79,-605.1667 82.1667,-602 85.3333,-602 85.3333,-602 126.6667,-602 126.6667,-602 129.8333,-602 133,-605.1667 133,-608.3333 133,-608.3333 133,-614.6667 133,-614.6667 133,-617.8333 129.8333,-621 126.6667,-621"/>
<text text-anchor="middle" x="106" y="-609" font-family="Times,serif" font-size="10.00" fill="#ffffff">10:Relu</text>
</g>
<!-- Name : /block2/Add
Info : &#45;&gt;Name : /block2/gate_1/Relu
Info :  -->
<g id="edge12" class="edge">
<title>Name : /block2/Add
Info : &#45;&gt;Name : /block2/gate_1/Relu
Info : </title>
<path fill="none" stroke="#000000" stroke-width=".7" d="M106,-628.7524C106,-627.9971 106,-627.2248 106,-626.4461"/>
<polygon fill="#000000" stroke="#000000" stroke-width=".7" points="106,-621.324 108.2501,-626.324 106,-623.824 106.0001,-626.324 106.0001,-626.324 106.0001,-626.324 106,-623.824 103.7501,-626.324 106,-621.324 106,-621.324"/>
</g>
<!-- Name : /pool4_1/MaxPool
Info :  -->
<g id="node12" class="node">
<title>Name : /pool4_1/MaxPool
Info : </title>
<path fill="#375588" stroke="#000000" d="M118.6667,-594C118.6667,-594 57.3333,-594 57.3333,-594 54.1667,-594 51,-590.8333 51,-587.6667 51,-587.6667 51,-581.3333 51,-581.3333 51,-578.1667 54.1667,-575 57.3333,-575 57.3333,-575 118.6667,-575 118.6667,-575 121.8333,-575 125,-578.1667 125,-581.3333 125,-581.3333 125,-587.6667 125,-587.6667 125,-590.8333 121.8333,-594 118.6667,-594"/>
<text text-anchor="middle" x="88" y="-582" font-family="Times,serif" font-size="10.00" fill="#ffffff">11:MaxPool</text>
</g>
<!-- Name : /block2/gate_1/Relu
Info : &#45;&gt;Name : /pool4_1/MaxPool
Info :  -->
<g id="edge13" class="edge">
<title>Name : /block2/gate_1/Relu
Info : &#45;&gt;Name : /pool4_1/MaxPool
Info : </title>
<path fill="none" stroke="#000000" stroke-width=".7" d="M99.5016,-601.7524C98.7967,-600.695 98.0695,-599.6043 97.3394,-598.5091"/>
<polygon fill="#000000" stroke="#000000" stroke-width=".7" points="94.5493,-594.324 99.195,-597.2362 95.9361,-596.4041 97.3229,-598.4843 97.3229,-598.4843 97.3229,-598.4843 95.9361,-596.4041 95.4508,-599.7324 94.5493,-594.324 94.5493,-594.324"/>
</g>
<!-- Name : /conv2/Conv
Info :  -->
<g id="node34" class="node">
<title>Name : /conv2/Conv
Info : </title>
<path fill="#375588" stroke="#000000" d="M185.6667,-567C185.6667,-567 142.3333,-567 142.3333,-567 139.1667,-567 136,-563.8333 136,-560.6667 136,-560.6667 136,-554.3333 136,-554.3333 136,-551.1667 139.1667,-548 142.3333,-548 142.3333,-548 185.6667,-548 185.6667,-548 188.8333,-548 192,-551.1667 192,-554.3333 192,-554.3333 192,-560.6667 192,-560.6667 192,-563.8333 188.8333,-567 185.6667,-567"/>
<text text-anchor="middle" x="164" y="-555" font-family="Times,serif" font-size="10.00" fill="#ffffff">33:Conv</text>
</g>
<!-- Name : /block2/gate_1/Relu
Info : &#45;&gt;Name : /conv2/Conv
Info :  -->
<g id="edge14" class="edge">
<title>Name : /block2/gate_1/Relu
Info : &#45;&gt;Name : /conv2/Conv
Info : </title>
<path fill="none" stroke="#000000" stroke-width=".7" d="M123.2071,-601.9755C126.9291,-599.5854 130.7267,-596.8751 134,-594 141.5533,-587.3656 148.7505,-578.7176 154.2013,-571.5047"/>
<polygon fill="#000000" stroke="#000000" stroke-width=".7" points="157.3571,-567.2299 156.1976,-572.5889 155.8722,-569.2413 154.3874,-571.2526 154.3874,-571.2526 154.3874,-571.2526 155.8722,-569.2413 152.5772,-569.9162 157.3571,-567.2299 157.3571,-567.2299"/>
</g>
<!-- Name : /pool4_2/MaxPool
Info :  -->
<g id="node13" class="node">
<title>Name : /pool4_2/MaxPool
Info : </title>
<path fill="#375588" stroke="#000000" d="M111.6667,-567C111.6667,-567 50.3333,-567 50.3333,-567 47.1667,-567 44,-563.8333 44,-560.6667 44,-560.6667 44,-554.3333 44,-554.3333 44,-551.1667 47.1667,-548 50.3333,-548 50.3333,-548 111.6667,-548 111.6667,-548 114.8333,-548 118,-551.1667 118,-554.3333 118,-554.3333 118,-560.6667 118,-560.6667 118,-563.8333 114.8333,-567 111.6667,-567"/>
<text text-anchor="middle" x="81" y="-555" font-family="Times,serif" font-size="10.00" fill="#ffffff">12:MaxPool</text>
</g>
<!-- Name : /pool4_1/MaxPool
Info : &#45;&gt;Name : /pool4_2/MaxPool
Info :  -->
<g id="edge15" class="edge">
<title>Name : /pool4_1/MaxPool
Info : &#45;&gt;Name : /pool4_2/MaxPool
Info : </title>
<path fill="none" stroke="#000000" stroke-width=".7" d="M85.4728,-574.7524C85.277,-573.9971 85.0768,-573.2248 84.8749,-572.4461"/>
<polygon fill="#000000" stroke="#000000" stroke-width=".7" points="83.547,-567.324 86.9798,-571.5993 84.1744,-569.744 84.8018,-572.164 84.8018,-572.164 84.8018,-572.164 84.1744,-569.744 82.6238,-572.7287 83.547,-567.324 83.547,-567.324"/>
</g>
<!-- Name : /block3/downsample/Conv
Info :  -->
<g id="node14" class="node">
<title>Name : /block3/downsample/Conv
Info : </title>
<path fill="#375588" stroke="#000000" d="M65.6667,-513C65.6667,-513 22.3333,-513 22.3333,-513 19.1667,-513 16,-509.8333 16,-506.6667 16,-506.6667 16,-500.3333 16,-500.3333 16,-497.1667 19.1667,-494 22.3333,-494 22.3333,-494 65.6667,-494 65.6667,-494 68.8333,-494 72,-497.1667 72,-500.3333 72,-500.3333 72,-506.6667 72,-506.6667 72,-509.8333 68.8333,-513 65.6667,-513"/>
<text text-anchor="middle" x="44" y="-501" font-family="Times,serif" font-size="10.00" fill="#ffffff">13:Conv</text>
</g>
<!-- Name : /pool4_2/MaxPool
Info : &#45;&gt;Name : /block3/downsample/Conv
Info :  -->
<g id="edge16" class="edge">
<title>Name : /pool4_2/MaxPool
Info : &#45;&gt;Name : /block3/downsample/Conv
Info : </title>
<path fill="none" stroke="#000000" stroke-width=".7" d="M62.0556,-547.807C59.0257,-545.5801 56.1767,-542.9756 54,-540 49.425,-533.7459 46.9429,-525.5075 45.5964,-518.4405"/>
<polygon fill="#000000" stroke="#000000" stroke-width=".7" points="44.7722,-513.317 47.7879,-517.8961 45.1693,-515.7852 45.5664,-518.2535 45.5664,-518.2535 45.5664,-518.2535 45.1693,-515.7852 43.345,-518.6109 44.7722,-513.317 44.7722,-513.317"/>
</g>
<!-- Name : /block3/conv1/Conv
Info :  -->
<g id="node15" class="node">
<title>Name : /block3/conv1/Conv
Info : </title>
<path fill="#375588" stroke="#000000" d="M112.6667,-540C112.6667,-540 69.3333,-540 69.3333,-540 66.1667,-540 63,-536.8333 63,-533.6667 63,-533.6667 63,-527.3333 63,-527.3333 63,-524.1667 66.1667,-521 69.3333,-521 69.3333,-521 112.6667,-521 112.6667,-521 115.8333,-521 119,-524.1667 119,-527.3333 119,-527.3333 119,-533.6667 119,-533.6667 119,-536.8333 115.8333,-540 112.6667,-540"/>
<text text-anchor="middle" x="91" y="-528" font-family="Times,serif" font-size="10.00" fill="#ffffff">14:Conv</text>
</g>
<!-- Name : /pool4_2/MaxPool
Info : &#45;&gt;Name : /block3/conv1/Conv
Info :  -->
<g id="edge17" class="edge">
<title>Name : /pool4_2/MaxPool
Info : &#45;&gt;Name : /block3/conv1/Conv
Info : </title>
<path fill="none" stroke="#000000" stroke-width=".7" d="M84.6102,-547.7524C84.89,-546.9971 85.176,-546.2248 85.4644,-545.4461"/>
<polygon fill="#000000" stroke="#000000" stroke-width=".7" points="87.3615,-540.324 87.7348,-545.7942 86.4932,-542.6684 85.6249,-545.0127 85.6249,-545.0127 85.6249,-545.0127 86.4932,-542.6684 83.5149,-544.2313 87.3615,-540.324 87.3615,-540.324"/>
</g>
<!-- Name : /block3/Add
Info :  -->
<g id="node18" class="node">
<title>Name : /block3/Add
Info : </title>
<path fill="#375588" stroke="#000000" d="M95.6667,-459C95.6667,-459 54.3333,-459 54.3333,-459 51.1667,-459 48,-455.8333 48,-452.6667 48,-452.6667 48,-446.3333 48,-446.3333 48,-443.1667 51.1667,-440 54.3333,-440 54.3333,-440 95.6667,-440 95.6667,-440 98.8333,-440 102,-443.1667 102,-446.3333 102,-446.3333 102,-452.6667 102,-452.6667 102,-455.8333 98.8333,-459 95.6667,-459"/>
<text text-anchor="middle" x="75" y="-447" font-family="Times,serif" font-size="10.00" fill="#ffffff">17:Add</text>
</g>
<!-- Name : /block3/downsample/Conv
Info : &#45;&gt;Name : /block3/Add
Info :  -->
<g id="edge18" class="edge">
<title>Name : /block3/downsample/Conv
Info : &#45;&gt;Name : /block3/Add
Info : </title>
<path fill="none" stroke="#000000" stroke-width=".7" d="M42.5375,-493.7835C41.8669,-485.9802 42.1047,-475.0366 47,-467 47.9245,-465.4823 49.0356,-464.0756 50.2747,-462.7752"/>
<polygon fill="#000000" stroke="#000000" stroke-width=".7" points="54.3169,-459.1884 52.0703,-464.19 52.4469,-460.8477 50.5769,-462.507 50.5769,-462.507 50.5769,-462.507 52.4469,-460.8477 49.0835,-460.824 54.3169,-459.1884 54.3169,-459.1884"/>
</g>
<!-- Name : /block3/gate/Relu
Info :  -->
<g id="node16" class="node">
<title>Name : /block3/gate/Relu
Info : </title>
<path fill="#375588" stroke="#000000" d="M137.6667,-513C137.6667,-513 96.3333,-513 96.3333,-513 93.1667,-513 90,-509.8333 90,-506.6667 90,-506.6667 90,-500.3333 90,-500.3333 90,-497.1667 93.1667,-494 96.3333,-494 96.3333,-494 137.6667,-494 137.6667,-494 140.8333,-494 144,-497.1667 144,-500.3333 144,-500.3333 144,-506.6667 144,-506.6667 144,-509.8333 140.8333,-513 137.6667,-513"/>
<text text-anchor="middle" x="117" y="-501" font-family="Times,serif" font-size="10.00" fill="#ffffff">15:Relu</text>
</g>
<!-- Name : /block3/conv1/Conv
Info : &#45;&gt;Name : /block3/gate/Relu
Info :  -->
<g id="edge19" class="edge">
<title>Name : /block3/conv1/Conv
Info : &#45;&gt;Name : /block3/gate/Relu
Info : </title>
<path fill="none" stroke="#000000" stroke-width=".7" d="M100.3866,-520.7524C101.5503,-519.544 102.7559,-518.292 103.9619,-517.0396"/>
<polygon fill="#000000" stroke="#000000" stroke-width=".7" points="107.5399,-513.324 105.6923,-518.4863 105.8057,-515.1248 104.0716,-516.9256 104.0716,-516.9256 104.0716,-516.9256 105.8057,-515.1248 102.4509,-515.3649 107.5399,-513.324 107.5399,-513.324"/>
</g>
<!-- Name : /block3/conv2/Conv
Info :  -->
<g id="node17" class="node">
<title>Name : /block3/conv2/Conv
Info : </title>
<path fill="#375588" stroke="#000000" d="M105.6667,-486C105.6667,-486 62.3333,-486 62.3333,-486 59.1667,-486 56,-482.8333 56,-479.6667 56,-479.6667 56,-473.3333 56,-473.3333 56,-470.1667 59.1667,-467 62.3333,-467 62.3333,-467 105.6667,-467 105.6667,-467 108.8333,-467 112,-470.1667 112,-473.3333 112,-473.3333 112,-479.6667 112,-479.6667 112,-482.8333 108.8333,-486 105.6667,-486"/>
<text text-anchor="middle" x="84" y="-474" font-family="Times,serif" font-size="10.00" fill="#ffffff">16:Conv</text>
</g>
<!-- Name : /block3/gate/Relu
Info : &#45;&gt;Name : /block3/conv2/Conv
Info :  -->
<g id="edge20" class="edge">
<title>Name : /block3/gate/Relu
Info : &#45;&gt;Name : /block3/conv2/Conv
Info : </title>
<path fill="none" stroke="#000000" stroke-width=".7" d="M105.0862,-493.7524C103.4247,-492.3929 101.6957,-490.9783 99.9744,-489.5699"/>
<polygon fill="#000000" stroke="#000000" stroke-width=".7" points="96.0071,-486.324 101.3017,-487.7488 97.942,-487.9071 99.8769,-489.4902 99.8769,-489.4902 99.8769,-489.4902 97.942,-487.9071 98.4521,-491.2316 96.0071,-486.324 96.0071,-486.324"/>
</g>
<!-- Name : /block3/conv2/Conv
Info : &#45;&gt;Name : /block3/Add
Info :  -->
<g id="edge21" class="edge">
<title>Name : /block3/conv2/Conv
Info : &#45;&gt;Name : /block3/Add
Info : </title>
<path fill="none" stroke="#000000" stroke-width=".7" d="M80.7508,-466.7524C80.499,-465.9971 80.2416,-465.2248 79.982,-464.4461"/>
<polygon fill="#000000" stroke="#000000" stroke-width=".7" points="78.2747,-459.324 81.9904,-463.3559 79.0653,-461.6957 79.8559,-464.0674 79.8559,-464.0674 79.8559,-464.0674 79.0653,-461.6957 77.7213,-464.779 78.2747,-459.324 78.2747,-459.324"/>
</g>
<!-- Name : /block3/gate_1/Relu
Info :  -->
<g id="node19" class="node">
<title>Name : /block3/gate_1/Relu
Info : </title>
<path fill="#375588" stroke="#000000" d="M95.6667,-432C95.6667,-432 54.3333,-432 54.3333,-432 51.1667,-432 48,-428.8333 48,-425.6667 48,-425.6667 48,-419.3333 48,-419.3333 48,-416.1667 51.1667,-413 54.3333,-413 54.3333,-413 95.6667,-413 95.6667,-413 98.8333,-413 102,-416.1667 102,-419.3333 102,-419.3333 102,-425.6667 102,-425.6667 102,-428.8333 98.8333,-432 95.6667,-432"/>
<text text-anchor="middle" x="75" y="-420" font-family="Times,serif" font-size="10.00" fill="#ffffff">18:Relu</text>
</g>
<!-- Name : /block3/Add
Info : &#45;&gt;Name : /block3/gate_1/Relu
Info :  -->
<g id="edge22" class="edge">
<title>Name : /block3/Add
Info : &#45;&gt;Name : /block3/gate_1/Relu
Info : </title>
<path fill="none" stroke="#000000" stroke-width=".7" d="M75,-439.7524C75,-438.9971 75,-438.2248 75,-437.4461"/>
<polygon fill="#000000" stroke="#000000" stroke-width=".7" points="75,-432.324 77.2501,-437.324 75,-434.824 75.0001,-437.324 75.0001,-437.324 75.0001,-437.324 75,-434.824 72.7501,-437.324 75,-432.324 75,-432.324"/>
</g>
<!-- Name : /pool4_1_1/MaxPool
Info :  -->
<g id="node20" class="node">
<title>Name : /pool4_1_1/MaxPool
Info : </title>
<path fill="#375588" stroke="#000000" d="M100.6667,-405C100.6667,-405 39.3333,-405 39.3333,-405 36.1667,-405 33,-401.8333 33,-398.6667 33,-398.6667 33,-392.3333 33,-392.3333 33,-389.1667 36.1667,-386 39.3333,-386 39.3333,-386 100.6667,-386 100.6667,-386 103.8333,-386 107,-389.1667 107,-392.3333 107,-392.3333 107,-398.6667 107,-398.6667 107,-401.8333 103.8333,-405 100.6667,-405"/>
<text text-anchor="middle" x="70" y="-393" font-family="Times,serif" font-size="10.00" fill="#ffffff">19:MaxPool</text>
</g>
<!-- Name : /block3/gate_1/Relu
Info : &#45;&gt;Name : /pool4_1_1/MaxPool
Info :  -->
<g id="edge23" class="edge">
<title>Name : /block3/gate_1/Relu
Info : &#45;&gt;Name : /pool4_1_1/MaxPool
Info : </title>
<path fill="none" stroke="#000000" stroke-width=".7" d="M73.1949,-412.7524C73.055,-411.9971 72.912,-411.2248 72.7678,-410.4461"/>
<polygon fill="#000000" stroke="#000000" stroke-width=".7" points="71.8193,-405.324 74.9422,-409.8307 72.2745,-407.7822 72.7298,-410.2404 72.7298,-410.2404 72.7298,-410.2404 72.2745,-407.7822 70.5174,-410.6501 71.8193,-405.324 71.8193,-405.324"/>
</g>
<!-- Name : /conv3/Conv
Info :  -->
<g id="node31" class="node">
<title>Name : /conv3/Conv
Info : </title>
<path fill="#375588" stroke="#000000" d="M169.6667,-378C169.6667,-378 126.3333,-378 126.3333,-378 123.1667,-378 120,-374.8333 120,-371.6667 120,-371.6667 120,-365.3333 120,-365.3333 120,-362.1667 123.1667,-359 126.3333,-359 126.3333,-359 169.6667,-359 169.6667,-359 172.8333,-359 176,-362.1667 176,-365.3333 176,-365.3333 176,-371.6667 176,-371.6667 176,-374.8333 172.8333,-378 169.6667,-378"/>
<text text-anchor="middle" x="148" y="-366" font-family="Times,serif" font-size="10.00" fill="#ffffff">30:Conv</text>
</g>
<!-- Name : /block3/gate_1/Relu
Info : &#45;&gt;Name : /conv3/Conv
Info :  -->
<g id="edge24" class="edge">
<title>Name : /block3/gate_1/Relu
Info : &#45;&gt;Name : /conv3/Conv
Info : </title>
<path fill="none" stroke="#000000" stroke-width=".7" d="M102.3952,-412.8437C107.1358,-410.613 111.8642,-407.9978 116,-405 124.4758,-398.8563 132.2606,-390.081 138.0292,-382.6744"/>
<polygon fill="#000000" stroke="#000000" stroke-width=".7" points="141.3487,-378.2754 140.133,-383.6219 139.8428,-380.271 138.3369,-382.2666 138.3369,-382.2666 138.3369,-382.2666 139.8428,-380.271 136.5409,-380.9114 141.3487,-378.2754 141.3487,-378.2754"/>
</g>
<!-- Name : /pool4_2_1/MaxPool
Info :  -->
<g id="node21" class="node">
<title>Name : /pool4_2_1/MaxPool
Info : </title>
<path fill="#375588" stroke="#000000" d="M95.6667,-378C95.6667,-378 34.3333,-378 34.3333,-378 31.1667,-378 28,-374.8333 28,-371.6667 28,-371.6667 28,-365.3333 28,-365.3333 28,-362.1667 31.1667,-359 34.3333,-359 34.3333,-359 95.6667,-359 95.6667,-359 98.8333,-359 102,-362.1667 102,-365.3333 102,-365.3333 102,-371.6667 102,-371.6667 102,-374.8333 98.8333,-378 95.6667,-378"/>
<text text-anchor="middle" x="65" y="-366" font-family="Times,serif" font-size="10.00" fill="#ffffff">20:MaxPool</text>
</g>
<!-- Name : /pool4_1_1/MaxPool
Info : &#45;&gt;Name : /pool4_2_1/MaxPool
Info :  -->
<g id="edge25" class="edge">
<title>Name : /pool4_1_1/MaxPool
Info : &#45;&gt;Name : /pool4_2_1/MaxPool
Info : </title>
<path fill="none" stroke="#000000" stroke-width=".7" d="M68.1949,-385.7524C68.055,-384.9971 67.912,-384.2248 67.7678,-383.4461"/>
<polygon fill="#000000" stroke="#000000" stroke-width=".7" points="66.8193,-378.324 69.9422,-382.8307 67.2745,-380.7822 67.7298,-383.2404 67.7298,-383.2404 67.7298,-383.2404 67.2745,-380.7822 65.5174,-383.6501 66.8193,-378.324 66.8193,-378.324"/>
</g>
<!-- Name : /block4/downsample/Conv
Info :  -->
<g id="node22" class="node">
<title>Name : /block4/downsample/Conv
Info : </title>
<path fill="#375588" stroke="#000000" d="M65.6667,-324C65.6667,-324 22.3333,-324 22.3333,-324 19.1667,-324 16,-320.8333 16,-317.6667 16,-317.6667 16,-311.3333 16,-311.3333 16,-308.1667 19.1667,-305 22.3333,-305 22.3333,-305 65.6667,-305 65.6667,-305 68.8333,-305 72,-308.1667 72,-311.3333 72,-311.3333 72,-317.6667 72,-317.6667 72,-320.8333 68.8333,-324 65.6667,-324"/>
<text text-anchor="middle" x="44" y="-312" font-family="Times,serif" font-size="10.00" fill="#ffffff">21:Conv</text>
</g>
<!-- Name : /pool4_2_1/MaxPool
Info : &#45;&gt;Name : /block4/downsample/Conv
Info :  -->
<g id="edge26" class="edge">
<title>Name : /pool4_2_1/MaxPool
Info : &#45;&gt;Name : /block4/downsample/Conv
Info : </title>
<path fill="none" stroke="#000000" stroke-width=".7" d="M45.8239,-358.9216C43.0795,-356.7046 40.6364,-354.0739 39,-351 35.4554,-344.3414 36.2379,-336.0713 38.1129,-329.0876"/>
<polygon fill="#000000" stroke="#000000" stroke-width=".7" points="39.7061,-324.046 40.3449,-329.4916 38.9528,-326.4298 38.1995,-328.8136 38.1995,-328.8136 38.1995,-328.8136 38.9528,-326.4298 36.054,-328.1356 39.7061,-324.046 39.7061,-324.046"/>
</g>
<!-- Name : /block4/conv1/Conv
Info :  -->
<g id="node23" class="node">
<title>Name : /block4/conv1/Conv
Info : </title>
<path fill="#375588" stroke="#000000" d="M97.6667,-351C97.6667,-351 54.3333,-351 54.3333,-351 51.1667,-351 48,-347.8333 48,-344.6667 48,-344.6667 48,-338.3333 48,-338.3333 48,-335.1667 51.1667,-332 54.3333,-332 54.3333,-332 97.6667,-332 97.6667,-332 100.8333,-332 104,-335.1667 104,-338.3333 104,-338.3333 104,-344.6667 104,-344.6667 104,-347.8333 100.8333,-351 97.6667,-351"/>
<text text-anchor="middle" x="76" y="-339" font-family="Times,serif" font-size="10.00" fill="#ffffff">22:Conv</text>
</g>
<!-- Name : /pool4_2_1/MaxPool
Info : &#45;&gt;Name : /block4/conv1/Conv
Info :  -->
<g id="edge27" class="edge">
<title>Name : /pool4_2_1/MaxPool
Info : &#45;&gt;Name : /block4/conv1/Conv
Info : </title>
<path fill="none" stroke="#000000" stroke-width=".7" d="M68.9713,-358.7524C69.3405,-357.8461 69.7197,-356.9153 70.1015,-355.9781"/>
<polygon fill="#000000" stroke="#000000" stroke-width=".7" points="71.9976,-351.324 72.1948,-356.8034 71.0544,-353.6392 70.1111,-355.9545 70.1111,-355.9545 70.1111,-355.9545 71.0544,-353.6392 68.0274,-355.1055 71.9976,-351.324 71.9976,-351.324"/>
</g>
<!-- Name : /block4/Add
Info :  -->
<g id="node26" class="node">
<title>Name : /block4/Add
Info : </title>
<path fill="#375588" stroke="#000000" d="M84.6667,-270C84.6667,-270 43.3333,-270 43.3333,-270 40.1667,-270 37,-266.8333 37,-263.6667 37,-263.6667 37,-257.3333 37,-257.3333 37,-254.1667 40.1667,-251 43.3333,-251 43.3333,-251 84.6667,-251 84.6667,-251 87.8333,-251 91,-254.1667 91,-257.3333 91,-257.3333 91,-263.6667 91,-263.6667 91,-266.8333 87.8333,-270 84.6667,-270"/>
<text text-anchor="middle" x="64" y="-258" font-family="Times,serif" font-size="10.00" fill="#ffffff">25:Add</text>
</g>
<!-- Name : /block4/downsample/Conv
Info : &#45;&gt;Name : /block4/Add
Info :  -->
<g id="edge28" class="edge">
<title>Name : /block4/downsample/Conv
Info : &#45;&gt;Name : /block4/Add
Info : </title>
<path fill="none" stroke="#000000" stroke-width=".7" d="M32.0548,-304.7539C29.993,-302.4466 28.1466,-299.826 27,-297 23.8251,-289.1751 22.4823,-285.1343 27,-278 28.5206,-275.5986 30.4694,-273.5204 32.6754,-271.7231"/>
<polygon fill="#000000" stroke="#000000" stroke-width=".7" points="36.887,-268.7819 34.0759,-273.4894 34.8373,-270.2133 32.7876,-271.6447 32.7876,-271.6447 32.7876,-271.6447 34.8373,-270.2133 31.4994,-269.8 36.887,-268.7819 36.887,-268.7819"/>
</g>
<!-- Name : /block4/gate/Relu
Info :  -->
<g id="node24" class="node">
<title>Name : /block4/gate/Relu
Info : </title>
<path fill="#375588" stroke="#000000" d="M137.6667,-324C137.6667,-324 96.3333,-324 96.3333,-324 93.1667,-324 90,-320.8333 90,-317.6667 90,-317.6667 90,-311.3333 90,-311.3333 90,-308.1667 93.1667,-305 96.3333,-305 96.3333,-305 137.6667,-305 137.6667,-305 140.8333,-305 144,-308.1667 144,-311.3333 144,-311.3333 144,-317.6667 144,-317.6667 144,-320.8333 140.8333,-324 137.6667,-324"/>
<text text-anchor="middle" x="117" y="-312" font-family="Times,serif" font-size="10.00" fill="#ffffff">23:Relu</text>
</g>
<!-- Name : /block4/conv1/Conv
Info : &#45;&gt;Name : /block4/gate/Relu
Info :  -->
<g id="edge29" class="edge">
<title>Name : /block4/conv1/Conv
Info : &#45;&gt;Name : /block4/gate/Relu
Info : </title>
<path fill="none" stroke="#000000" stroke-width=".7" d="M90.8019,-331.7524C93.153,-330.2041 95.6127,-328.5843 98.0433,-326.9837"/>
<polygon fill="#000000" stroke="#000000" stroke-width=".7" points="102.3572,-324.1428 99.4189,-328.7719 100.2693,-325.5178 98.1814,-326.8928 98.1814,-326.8928 98.1814,-326.8928 100.2693,-325.5178 96.9439,-325.0136 102.3572,-324.1428 102.3572,-324.1428"/>
</g>
<!-- Name : /block4/conv2/Conv
Info :  -->
<g id="node25" class="node">
<title>Name : /block4/conv2/Conv
Info : </title>
<path fill="#375588" stroke="#000000" d="M85.6667,-297C85.6667,-297 42.3333,-297 42.3333,-297 39.1667,-297 36,-293.8333 36,-290.6667 36,-290.6667 36,-284.3333 36,-284.3333 36,-281.1667 39.1667,-278 42.3333,-278 42.3333,-278 85.6667,-278 85.6667,-278 88.8333,-278 92,-281.1667 92,-284.3333 92,-284.3333 92,-290.6667 92,-290.6667 92,-293.8333 88.8333,-297 85.6667,-297"/>
<text text-anchor="middle" x="64" y="-285" font-family="Times,serif" font-size="10.00" fill="#ffffff">24:Conv</text>
</g>
<!-- Name : /block4/gate/Relu
Info : &#45;&gt;Name : /block4/conv2/Conv
Info :  -->
<g id="edge30" class="edge">
<title>Name : /block4/gate/Relu
Info : &#45;&gt;Name : /block4/conv2/Conv
Info : </title>
<path fill="none" stroke="#000000" stroke-width=".7" d="M98.165,-304.9048C94.7284,-303.1541 91.1038,-301.3076 87.5507,-299.4975"/>
<polygon fill="#000000" stroke="#000000" stroke-width=".7" points="82.7744,-297.0643 88.251,-297.3292 85.002,-298.1992 87.2296,-299.334 87.2296,-299.334 87.2296,-299.334 85.002,-298.1992 86.2082,-301.3388 82.7744,-297.0643 82.7744,-297.0643"/>
</g>
<!-- Name : /block4/conv2/Conv
Info : &#45;&gt;Name : /block4/Add
Info :  -->
<g id="edge31" class="edge">
<title>Name : /block4/conv2/Conv
Info : &#45;&gt;Name : /block4/Add
Info : </title>
<path fill="none" stroke="#000000" stroke-width=".7" d="M64,-277.7524C64,-276.9971 64,-276.2248 64,-275.4461"/>
<polygon fill="#000000" stroke="#000000" stroke-width=".7" points="64,-270.324 66.2501,-275.324 64,-272.824 64.0001,-275.324 64.0001,-275.324 64.0001,-275.324 64,-272.824 61.7501,-275.324 64,-270.324 64,-270.324"/>
</g>
<!-- Name : /block4/gate_1/Relu
Info :  -->
<g id="node27" class="node">
<title>Name : /block4/gate_1/Relu
Info : </title>
<path fill="#375588" stroke="#000000" d="M97.6667,-243C97.6667,-243 56.3333,-243 56.3333,-243 53.1667,-243 50,-239.8333 50,-236.6667 50,-236.6667 50,-230.3333 50,-230.3333 50,-227.1667 53.1667,-224 56.3333,-224 56.3333,-224 97.6667,-224 97.6667,-224 100.8333,-224 104,-227.1667 104,-230.3333 104,-230.3333 104,-236.6667 104,-236.6667 104,-239.8333 100.8333,-243 97.6667,-243"/>
<text text-anchor="middle" x="77" y="-231" font-family="Times,serif" font-size="10.00" fill="#ffffff">26:Relu</text>
</g>
<!-- Name : /block4/Add
Info : &#45;&gt;Name : /block4/gate_1/Relu
Info :  -->
<g id="edge32" class="edge">
<title>Name : /block4/Add
Info : &#45;&gt;Name : /block4/gate_1/Relu
Info : </title>
<path fill="none" stroke="#000000" stroke-width=".7" d="M68.6933,-250.7524C69.1297,-249.8461 69.5778,-248.9153 70.0291,-247.9781"/>
<polygon fill="#000000" stroke="#000000" stroke-width=".7" points="72.2699,-243.324 72.1281,-248.8051 71.1854,-245.5765 70.1008,-247.829 70.1008,-247.829 70.1008,-247.829 71.1854,-245.5765 68.0735,-246.8529 72.2699,-243.324 72.2699,-243.324"/>
</g>
<!-- Name : /conv4/Conv
Info :  -->
<g id="node28" class="node">
<title>Name : /conv4/Conv
Info : </title>
<path fill="#375588" stroke="#000000" d="M110.6667,-216C110.6667,-216 67.3333,-216 67.3333,-216 64.1667,-216 61,-212.8333 61,-209.6667 61,-209.6667 61,-203.3333 61,-203.3333 61,-200.1667 64.1667,-197 67.3333,-197 67.3333,-197 110.6667,-197 110.6667,-197 113.8333,-197 117,-200.1667 117,-203.3333 117,-203.3333 117,-209.6667 117,-209.6667 117,-212.8333 113.8333,-216 110.6667,-216"/>
<text text-anchor="middle" x="89" y="-204" font-family="Times,serif" font-size="10.00" fill="#ffffff">27:Conv</text>
</g>
<!-- Name : /block4/gate_1/Relu
Info : &#45;&gt;Name : /conv4/Conv
Info :  -->
<g id="edge33" class="edge">
<title>Name : /block4/gate_1/Relu
Info : &#45;&gt;Name : /conv4/Conv
Info : </title>
<path fill="none" stroke="#000000" stroke-width=".7" d="M81.3323,-223.7524C81.7351,-222.8461 82.1488,-221.9153 82.5653,-220.9781"/>
<polygon fill="#000000" stroke="#000000" stroke-width=".7" points="84.6338,-216.324 84.6591,-221.8069 83.6184,-218.6085 82.603,-220.8931 82.603,-220.8931 82.603,-220.8931 83.6184,-218.6085 80.5469,-219.9792 84.6338,-216.324 84.6338,-216.324"/>
</g>
<!-- Name : /gate_3/Relu
Info :  -->
<g id="node29" class="node">
<title>Name : /gate_3/Relu
Info : </title>
<path fill="#375588" stroke="#000000" d="M111.6667,-189C111.6667,-189 70.3333,-189 70.3333,-189 67.1667,-189 64,-185.8333 64,-182.6667 64,-182.6667 64,-176.3333 64,-176.3333 64,-173.1667 67.1667,-170 70.3333,-170 70.3333,-170 111.6667,-170 111.6667,-170 114.8333,-170 118,-173.1667 118,-176.3333 118,-176.3333 118,-182.6667 118,-182.6667 118,-185.8333 114.8333,-189 111.6667,-189"/>
<text text-anchor="middle" x="91" y="-177" font-family="Times,serif" font-size="10.00" fill="#ffffff">28:Relu</text>
</g>
<!-- Name : /conv4/Conv
Info : &#45;&gt;Name : /gate_3/Relu
Info :  -->
<g id="edge34" class="edge">
<title>Name : /conv4/Conv
Info : &#45;&gt;Name : /gate_3/Relu
Info : </title>
<path fill="none" stroke="#000000" stroke-width=".7" d="M89.722,-196.7524C89.778,-195.9971 89.8352,-195.2248 89.8929,-194.4461"/>
<polygon fill="#000000" stroke="#000000" stroke-width=".7" points="90.2723,-189.324 92.1467,-194.4766 90.0876,-191.8172 89.9028,-194.3103 89.9028,-194.3103 89.9028,-194.3103 90.0876,-191.8172 87.659,-194.1441 90.2723,-189.324 90.2723,-189.324"/>
</g>
<!-- Name : /upsample32/Resize
Info : SUGGESTION &#45;&#45; [TIDL_ResizeLayer] &#160;Resize kernel with non&#45;power of 2 resize ratio is not optimal. -->
<g id="node30" class="node">
<title>Name : /upsample32/Resize
Info : SUGGESTION &#45;&#45; [TIDL_ResizeLayer] &#160;Resize kernel with non&#45;power of 2 resize ratio is not optimal.</title>
<path fill="#375588" stroke="#000000" d="M124.1667,-162C124.1667,-162 71.8333,-162 71.8333,-162 68.6667,-162 65.5,-158.8333 65.5,-155.6667 65.5,-155.6667 65.5,-149.3333 65.5,-149.3333 65.5,-146.1667 68.6667,-143 71.8333,-143 71.8333,-143 124.1667,-143 124.1667,-143 127.3333,-143 130.5,-146.1667 130.5,-149.3333 130.5,-149.3333 130.5,-155.6667 130.5,-155.6667 130.5,-158.8333 127.3333,-162 124.1667,-162"/>
<text text-anchor="middle" x="98" y="-150" font-family="Times,serif" font-size="10.00" fill="#ffffff">29:Resize</text>
</g>
<!-- Name : /gate_3/Relu
Info : &#45;&gt;Name : /upsample32/Resize
Info : SUGGESTION &#45;&#45; [TIDL_ResizeLayer] &#160;Resize kernel with non&#45;power of 2 resize ratio is not optimal. -->
<g id="edge35" class="edge">
<title>Name : /gate_3/Relu
Info : &#45;&gt;Name : /upsample32/Resize
Info : SUGGESTION &#45;&#45; [TIDL_ResizeLayer] &#160;Resize kernel with non&#45;power of 2 resize ratio is not optimal.</title>
<path fill="none" stroke="#000000" stroke-width=".7" d="M93.5272,-169.7524C93.723,-168.9971 93.9232,-168.2248 94.1251,-167.4461"/>
<polygon fill="#000000" stroke="#000000" stroke-width=".7" points="95.453,-162.324 96.3762,-167.7287 94.8256,-164.744 94.1982,-167.164 94.1982,-167.164 94.1982,-167.164 94.8256,-164.744 92.0202,-166.5993 95.453,-162.324 95.453,-162.324"/>
</g>
<!-- Name : /Concat
Info :  -->
<g id="node39" class="node">
<title>Name : /Concat
Info : </title>
<path fill="#375588" stroke="#000000" d="M199.6667,-135C199.6667,-135 146.3333,-135 146.3333,-135 143.1667,-135 140,-131.8333 140,-128.6667 140,-128.6667 140,-122.3333 140,-122.3333 140,-119.1667 143.1667,-116 146.3333,-116 146.3333,-116 199.6667,-116 199.6667,-116 202.8333,-116 206,-119.1667 206,-122.3333 206,-122.3333 206,-128.6667 206,-128.6667 206,-131.8333 202.8333,-135 199.6667,-135"/>
<text text-anchor="middle" x="173" y="-123" font-family="Times,serif" font-size="10.00" fill="#ffffff">38:Concat</text>
</g>
<!-- Name : /upsample32/Resize
Info : SUGGESTION &#45;&#45; [TIDL_ResizeLayer] &#160;Resize kernel with non&#45;power of 2 resize ratio is not optimal.&#45;&gt;Name : /Concat
Info :  -->
<g id="edge36" class="edge">
<title>Name : /upsample32/Resize
Info : SUGGESTION &#45;&#45; [TIDL_ResizeLayer] &#160;Resize kernel with non&#45;power of 2 resize ratio is not optimal.&#45;&gt;Name : /Concat
Info : </title>
<path fill="none" stroke="#000000" stroke-width=".7" d="M124.6534,-142.9048C130.1795,-140.9154 136.0495,-138.8022 141.7238,-136.7594"/>
<polygon fill="#000000" stroke="#000000" stroke-width=".7" points="146.4325,-135.0643 142.4902,-138.875 144.0802,-135.9111 141.728,-136.758 141.728,-136.758 141.728,-136.758 144.0802,-135.9111 140.9659,-134.641 146.4325,-135.0643 146.4325,-135.0643"/>
</g>
<!-- Name : /gate_2/Relu
Info :  -->
<g id="node32" class="node">
<title>Name : /gate_2/Relu
Info : </title>
<path fill="#375588" stroke="#000000" d="M169.6667,-351C169.6667,-351 128.3333,-351 128.3333,-351 125.1667,-351 122,-347.8333 122,-344.6667 122,-344.6667 122,-338.3333 122,-338.3333 122,-335.1667 125.1667,-332 128.3333,-332 128.3333,-332 169.6667,-332 169.6667,-332 172.8333,-332 176,-335.1667 176,-338.3333 176,-338.3333 176,-344.6667 176,-344.6667 176,-347.8333 172.8333,-351 169.6667,-351"/>
<text text-anchor="middle" x="149" y="-339" font-family="Times,serif" font-size="10.00" fill="#ffffff">31:Relu</text>
</g>
<!-- Name : /conv3/Conv
Info : &#45;&gt;Name : /gate_2/Relu
Info :  -->
<g id="edge37" class="edge">
<title>Name : /conv3/Conv
Info : &#45;&gt;Name : /gate_2/Relu
Info : </title>
<path fill="none" stroke="#000000" stroke-width=".7" d="M148.361,-358.7524C148.389,-357.9971 148.4176,-357.2248 148.4464,-356.4461"/>
<polygon fill="#000000" stroke="#000000" stroke-width=".7" points="148.6361,-351.324 150.6995,-356.4039 148.5436,-353.8223 148.451,-356.3206 148.451,-356.3206 148.451,-356.3206 148.5436,-353.8223 146.2025,-356.2373 148.6361,-351.324 148.6361,-351.324"/>
</g>
<!-- Name : /upsample8/Resize
Info : SUGGESTION &#45;&#45; [TIDL_ResizeLayer] &#160;Resize kernel with non&#45;power of 2 resize ratio is not optimal. -->
<g id="node33" class="node">
<title>Name : /upsample8/Resize
Info : SUGGESTION &#45;&#45; [TIDL_ResizeLayer] &#160;Resize kernel with non&#45;power of 2 resize ratio is not optimal.</title>
<path fill="#375588" stroke="#000000" d="M169.1667,-297C169.1667,-297 116.8333,-297 116.8333,-297 113.6667,-297 110.5,-293.8333 110.5,-290.6667 110.5,-290.6667 110.5,-284.3333 110.5,-284.3333 110.5,-281.1667 113.6667,-278 116.8333,-278 116.8333,-278 169.1667,-278 169.1667,-278 172.3333,-278 175.5,-281.1667 175.5,-284.3333 175.5,-284.3333 175.5,-290.6667 175.5,-290.6667 175.5,-293.8333 172.3333,-297 169.1667,-297"/>
<text text-anchor="middle" x="143" y="-285" font-family="Times,serif" font-size="10.00" fill="#ffffff">32:Resize</text>
</g>
<!-- Name : /gate_2/Relu
Info : &#45;&gt;Name : /upsample8/Resize
Info : SUGGESTION &#45;&#45; [TIDL_ResizeLayer] &#160;Resize kernel with non&#45;power of 2 resize ratio is not optimal. -->
<g id="edge38" class="edge">
<title>Name : /gate_2/Relu
Info : &#45;&gt;Name : /upsample8/Resize
Info : SUGGESTION &#45;&#45; [TIDL_ResizeLayer] &#160;Resize kernel with non&#45;power of 2 resize ratio is not optimal.</title>
<path fill="none" stroke="#000000" stroke-width=".7" d="M151.9799,-331.7486C153.796,-324.3119 155.3561,-313.8721 153,-305 152.7081,-303.9008 152.3292,-302.7987 151.8899,-301.7121"/>
<polygon fill="#000000" stroke="#000000" stroke-width=".7" points="149.6618,-297.1047 153.8643,-300.6264 150.7503,-299.3553 151.8387,-301.606 151.8387,-301.606 151.8387,-301.606 150.7503,-299.3553 149.8131,-302.5856 149.6618,-297.1047 149.6618,-297.1047"/>
</g>
<!-- Name : /upsample8/Resize
Info : SUGGESTION &#45;&#45; [TIDL_ResizeLayer] &#160;Resize kernel with non&#45;power of 2 resize ratio is not optimal.&#45;&gt;Name : /Concat
Info :  -->
<g id="edge39" class="edge">
<title>Name : /upsample8/Resize
Info : SUGGESTION &#45;&#45; [TIDL_ResizeLayer] &#160;Resize kernel with non&#45;power of 2 resize ratio is not optimal.&#45;&gt;Name : /Concat
Info : </title>
<path fill="none" stroke="#000000" stroke-width=".7" d="M145.9462,-277.6486C148.896,-266.9003 153,-249.1364 153,-233.5 153,-233.5 153,-233.5 153,-179.5 153,-165.2819 159.1725,-150.1954 164.6594,-139.5935"/>
<polygon fill="#000000" stroke="#000000" stroke-width=".7" points="167.1075,-135.0572 166.7129,-140.5259 165.9202,-137.2573 164.7329,-139.4574 164.7329,-139.4574 164.7329,-139.4574 165.9202,-137.2573 162.7528,-138.3888 167.1075,-135.0572 167.1075,-135.0572"/>
</g>
<!-- Name : /gate_1/Relu
Info :  -->
<g id="node35" class="node">
<title>Name : /gate_1/Relu
Info : </title>
<path fill="#375588" stroke="#000000" d="M184.6667,-540C184.6667,-540 143.3333,-540 143.3333,-540 140.1667,-540 137,-536.8333 137,-533.6667 137,-533.6667 137,-527.3333 137,-527.3333 137,-524.1667 140.1667,-521 143.3333,-521 143.3333,-521 184.6667,-521 184.6667,-521 187.8333,-521 191,-524.1667 191,-527.3333 191,-527.3333 191,-533.6667 191,-533.6667 191,-536.8333 187.8333,-540 184.6667,-540"/>
<text text-anchor="middle" x="164" y="-528" font-family="Times,serif" font-size="10.00" fill="#ffffff">34:Relu</text>
</g>
<!-- Name : /conv2/Conv
Info : &#45;&gt;Name : /gate_1/Relu
Info :  -->
<g id="edge40" class="edge">
<title>Name : /conv2/Conv
Info : &#45;&gt;Name : /gate_1/Relu
Info : </title>
<path fill="none" stroke="#000000" stroke-width=".7" d="M164,-547.7524C164,-546.9971 164,-546.2248 164,-545.4461"/>
<polygon fill="#000000" stroke="#000000" stroke-width=".7" points="164,-540.324 166.2501,-545.324 164,-542.824 164.0001,-545.324 164.0001,-545.324 164.0001,-545.324 164,-542.824 161.7501,-545.324 164,-540.324 164,-540.324"/>
</g>
<!-- Name : /upsample2/Resize
Info : INFORMATION &#45;&#45; [TIDL_ResizeLayer] &#160;Any resize ratio which is power of 2 and greater than 4 will be placed by combination of 4x4 resize layer and 2x2 resize layer. For example a 8x8 resize will be replaced by 4x4 resize followed by 2x2 resize. -->
<g id="node36" class="node">
<title>Name : /upsample2/Resize
Info : INFORMATION &#45;&#45; [TIDL_ResizeLayer] &#160;Any resize ratio which is power of 2 and greater than 4 will be placed by combination of 4x4 resize layer and 2x2 resize layer. For example a 8x8 resize will be replaced by 4x4 resize followed by 2x2 resize.</title>
<path fill="#375588" stroke="#000000" d="M189.1667,-486C189.1667,-486 136.8333,-486 136.8333,-486 133.6667,-486 130.5,-482.8333 130.5,-479.6667 130.5,-479.6667 130.5,-473.3333 130.5,-473.3333 130.5,-470.1667 133.6667,-467 136.8333,-467 136.8333,-467 189.1667,-467 189.1667,-467 192.3333,-467 195.5,-470.1667 195.5,-473.3333 195.5,-473.3333 195.5,-479.6667 195.5,-479.6667 195.5,-482.8333 192.3333,-486 189.1667,-486"/>
<text text-anchor="middle" x="163" y="-474" font-family="Times,serif" font-size="10.00" fill="#ffffff">35:Resize</text>
</g>
<!-- Name : /gate_1/Relu
Info : &#45;&gt;Name : /upsample2/Resize
Info : INFORMATION &#45;&#45; [TIDL_ResizeLayer] &#160;Any resize ratio which is power of 2 and greater than 4 will be placed by combination of 4x4 resize layer and 2x2 resize layer. For example a 8x8 resize will be replaced by 4x4 resize followed by 2x2 resize. -->
<g id="edge41" class="edge">
<title>Name : /gate_1/Relu
Info : &#45;&gt;Name : /upsample2/Resize
Info : INFORMATION &#45;&#45; [TIDL_ResizeLayer] &#160;Any resize ratio which is power of 2 and greater than 4 will be placed by combination of 4x4 resize layer and 2x2 resize layer. For example a 8x8 resize will be replaced by 4x4 resize followed by 2x2 resize.</title>
<path fill="none" stroke="#000000" stroke-width=".7" d="M163.8166,-520.5956C163.6658,-512.4507 163.4496,-500.7801 163.2776,-491.491"/>
<polygon fill="#000000" stroke="#000000" stroke-width=".7" points="163.1823,-486.3416 165.5245,-491.2991 163.2286,-488.8412 163.2749,-491.3408 163.2749,-491.3408 163.2749,-491.3408 163.2286,-488.8412 161.0253,-491.3825 163.1823,-486.3416 163.1823,-486.3416"/>
</g>
<!-- Name : /upsample2/Resize
Info : INFORMATION &#45;&#45; [TIDL_ResizeLayer] &#160;Any resize ratio which is power of 2 and greater than 4 will be placed by combination of 4x4 resize layer and 2x2 resize layer. For example a 8x8 resize will be replaced by 4x4 resize followed by 2x2 resize.&#45;&gt;Name : /Concat
Info :  -->
<g id="edge42" class="edge">
<title>Name : /upsample2/Resize
Info : INFORMATION &#45;&#45; [TIDL_ResizeLayer] &#160;Any resize ratio which is power of 2 and greater than 4 will be placed by combination of 4x4 resize layer and 2x2 resize layer. For example a 8x8 resize will be replaced by 4x4 resize followed by 2x2 resize.&#45;&gt;Name : /Concat
Info : </title>
<path fill="none" stroke="#000000" stroke-width=".7" d="M173.125,-466.7699C182.5,-456.6707 195,-439.9359 195,-422.5 195,-422.5 195,-422.5 195,-179.5 195,-165.2785 188.3748,-150.4037 182.3958,-139.8754"/>
<polygon fill="#000000" stroke="#000000" stroke-width=".7" points="179.7203,-135.3619 184.2054,-138.5157 180.9951,-137.5125 182.2699,-139.663 182.2699,-139.663 182.2699,-139.663 180.9951,-137.5125 180.3344,-140.8104 179.7203,-135.3619 179.7203,-135.3619"/>
</g>
<!-- Name : /gate/Relu
Info :  -->
<g id="node38" class="node">
<title>Name : /gate/Relu
Info : </title>
<path fill="#375588" stroke="#000000" d="M208.6667,-675C208.6667,-675 167.3333,-675 167.3333,-675 164.1667,-675 161,-671.8333 161,-668.6667 161,-668.6667 161,-662.3333 161,-662.3333 161,-659.1667 164.1667,-656 167.3333,-656 167.3333,-656 208.6667,-656 208.6667,-656 211.8333,-656 215,-659.1667 215,-662.3333 215,-662.3333 215,-668.6667 215,-668.6667 215,-671.8333 211.8333,-675 208.6667,-675"/>
<text text-anchor="middle" x="188" y="-663" font-family="Times,serif" font-size="10.00" fill="#ffffff">37:Relu</text>
</g>
<!-- Name : /conv1/Conv
Info : &#45;&gt;Name : /gate/Relu
Info :  -->
<g id="edge43" class="edge">
<title>Name : /conv1/Conv
Info : &#45;&gt;Name : /gate/Relu
Info : </title>
<path fill="none" stroke="#000000" stroke-width=".7" d="M188,-709.5956C188,-701.4507 188,-689.7801 188,-680.491"/>
<polygon fill="#000000" stroke="#000000" stroke-width=".7" points="188,-675.3416 190.2501,-680.3416 188,-677.8416 188.0001,-680.3416 188.0001,-680.3416 188.0001,-680.3416 188,-677.8416 185.7501,-680.3417 188,-675.3416 188,-675.3416"/>
</g>
<!-- Name : /gate/Relu
Info : &#45;&gt;Name : /Concat
Info :  -->
<g id="edge44" class="edge">
<title>Name : /gate/Relu
Info : &#45;&gt;Name : /Concat
Info : </title>
<path fill="none" stroke="#000000" stroke-width=".7" d="M196.2476,-655.8729C204.1878,-645.5942 215,-628.4801 215,-611.5 215,-611.5 215,-611.5 215,-179.5 215,-162.9986 202.6289,-148.503 191.3149,-138.6964"/>
<polygon fill="#000000" stroke="#000000" stroke-width=".7" points="187.2193,-135.3006 192.5045,-136.7599 189.1438,-136.8963 191.0683,-138.492 191.0683,-138.492 191.0683,-138.492 189.1438,-136.8963 189.6322,-140.224 187.2193,-135.3006 187.2193,-135.3006"/>
</g>
<!-- Name : /convhead2/Conv
Info :  -->
<g id="node40" class="node">
<title>Name : /convhead2/Conv
Info : </title>
<path fill="#375588" stroke="#000000" d="M194.6667,-108C194.6667,-108 151.3333,-108 151.3333,-108 148.1667,-108 145,-104.8333 145,-101.6667 145,-101.6667 145,-95.3333 145,-95.3333 145,-92.1667 148.1667,-89 151.3333,-89 151.3333,-89 194.6667,-89 194.6667,-89 197.8333,-89 201,-92.1667 201,-95.3333 201,-95.3333 201,-101.6667 201,-101.6667 201,-104.8333 197.8333,-108 194.6667,-108"/>
<text text-anchor="middle" x="173" y="-96" font-family="Times,serif" font-size="10.00" fill="#ffffff">39:Conv</text>
</g>
<!-- Name : /Concat
Info : &#45;&gt;Name : /convhead2/Conv
Info :  -->
<g id="edge45" class="edge">
<title>Name : /Concat
Info : &#45;&gt;Name : /convhead2/Conv
Info : </title>
<path fill="none" stroke="#000000" stroke-width=".7" d="M173,-115.7524C173,-114.9971 173,-114.2248 173,-113.4461"/>
<polygon fill="#000000" stroke="#000000" stroke-width=".7" points="173,-108.324 175.2501,-113.324 173,-110.824 173.0001,-113.324 173.0001,-113.324 173.0001,-113.324 173,-110.824 170.7501,-113.324 173,-108.324 173,-108.324"/>
</g>
<!-- Name : /Slice_1
Info :  -->
<g id="node41" class="node">
<title>Name : /Slice_1
Info : </title>
<path fill="#375588" stroke="#000000" d="M135.6667,-81C135.6667,-81 92.3333,-81 92.3333,-81 89.1667,-81 86,-77.8333 86,-74.6667 86,-74.6667 86,-68.3333 86,-68.3333 86,-65.1667 89.1667,-62 92.3333,-62 92.3333,-62 135.6667,-62 135.6667,-62 138.8333,-62 142,-65.1667 142,-68.3333 142,-68.3333 142,-74.6667 142,-74.6667 142,-77.8333 138.8333,-81 135.6667,-81"/>
<text text-anchor="middle" x="114" y="-69" font-family="Times,serif" font-size="10.00" fill="#ffffff">40:Slice</text>
</g>
<!-- Name : /convhead2/Conv
Info : &#45;&gt;Name : /Slice_1
Info :  -->
<g id="edge46" class="edge">
<title>Name : /convhead2/Conv
Info : &#45;&gt;Name : /Slice_1
Info : </title>
<path fill="none" stroke="#000000" stroke-width=".7" d="M152.0327,-88.9048C148.0332,-87.0745 143.8049,-85.1395 139.678,-83.2509"/>
<polygon fill="#000000" stroke="#000000" stroke-width=".7" points="134.8998,-81.0643 140.3826,-81.099 137.1731,-82.1047 139.4463,-83.145 139.4463,-83.145 139.4463,-83.145 137.1731,-82.1047 138.51,-85.1909 134.8998,-81.0643 134.8998,-81.0643"/>
</g>
<!-- Name : /Slice
Info :  -->
<g id="node43" class="node">
<title>Name : /Slice
Info : </title>
<path fill="#375588" stroke="#000000" d="M209.6667,-81C209.6667,-81 166.3333,-81 166.3333,-81 163.1667,-81 160,-77.8333 160,-74.6667 160,-74.6667 160,-68.3333 160,-68.3333 160,-65.1667 163.1667,-62 166.3333,-62 166.3333,-62 209.6667,-62 209.6667,-62 212.8333,-62 216,-65.1667 216,-68.3333 216,-68.3333 216,-74.6667 216,-74.6667 216,-77.8333 212.8333,-81 209.6667,-81"/>
<text text-anchor="middle" x="188" y="-69" font-family="Times,serif" font-size="10.00" fill="#ffffff">42:Slice</text>
</g>
<!-- Name : /convhead2/Conv
Info : &#45;&gt;Name : /Slice
Info :  -->
<g id="edge47" class="edge">
<title>Name : /convhead2/Conv
Info : &#45;&gt;Name : /Slice
Info : </title>
<path fill="none" stroke="#000000" stroke-width=".7" d="M178.4153,-88.7524C178.9188,-87.8461 179.436,-86.9153 179.9566,-85.9781"/>
<polygon fill="#000000" stroke="#000000" stroke-width=".7" points="182.5422,-81.324 182.0808,-86.7875 181.3281,-83.5094 180.114,-85.6948 180.114,-85.6948 180.114,-85.6948 181.3281,-83.5094 178.1471,-84.6021 182.5422,-81.324 182.5422,-81.324"/>
</g>
<!-- Name : /Sigmoid
Info :  -->
<g id="node42" class="node">
<title>Name : /Sigmoid
Info : </title>
<path fill="#375588" stroke="#000000" d="M143.1667,-54C143.1667,-54 84.8333,-54 84.8333,-54 81.6667,-54 78.5,-50.8333 78.5,-47.6667 78.5,-47.6667 78.5,-41.3333 78.5,-41.3333 78.5,-38.1667 81.6667,-35 84.8333,-35 84.8333,-35 143.1667,-35 143.1667,-35 146.3333,-35 149.5,-38.1667 149.5,-41.3333 149.5,-41.3333 149.5,-47.6667 149.5,-47.6667 149.5,-50.8333 146.3333,-54 143.1667,-54"/>
<text text-anchor="middle" x="114" y="-42" font-family="Times,serif" font-size="10.00" fill="#ffffff">41:Sigmoid</text>
</g>
<!-- Name : /Slice_1
Info : &#45;&gt;Name : /Sigmoid
Info :  -->
<g id="edge48" class="edge">
<title>Name : /Slice_1
Info : &#45;&gt;Name : /Sigmoid
Info : </title>
<path fill="none" stroke="#000000" stroke-width=".7" d="M114,-61.7524C114,-60.9971 114,-60.2248 114,-59.4461"/>
<polygon fill="#000000" stroke="#000000" stroke-width=".7" points="114,-54.324 116.2501,-59.324 114,-56.824 114.0001,-59.324 114.0001,-59.324 114.0001,-59.324 114,-56.824 111.7501,-59.324 114,-54.324 114,-54.324"/>
</g>
<!-- Output : 41 -->
<g id="node45" class="node">
<title>Output : 41</title>
<path fill="#000000" stroke="#000000" d="M134.6667,-19C134.6667,-19 93.3333,-19 93.3333,-19 90.1667,-19 87,-15.8333 87,-12.6667 87,-12.6667 87,-6.3333 87,-6.3333 87,-3.1667 90.1667,0 93.3333,0 93.3333,0 134.6667,0 134.6667,0 137.8333,0 141,-3.1667 141,-6.3333 141,-6.3333 141,-12.6667 141,-12.6667 141,-15.8333 137.8333,-19 134.6667,-19"/>
<text text-anchor="middle" x="114" y="-7" font-family="Times,serif" font-size="10.00" fill="#ffffff">Output</text>
</g>
<!-- Name : /Sigmoid
Info : &#45;&gt;Output : 41 -->
<g id="edge50" class="edge">
<title>Name : /Sigmoid
Info : &#45;&gt;Output : 41</title>
<path fill="none" stroke="#000000" stroke-width=".7" d="M114,-34.9361C114,-31.7483 114,-28.1148 114,-24.6114"/>
<polygon fill="#000000" stroke="#000000" stroke-width=".7" points="114,-19.296 116.2501,-24.2959 114,-21.796 114.0001,-24.296 114.0001,-24.296 114.0001,-24.296 114,-21.796 111.7501,-24.296 114,-19.296 114,-19.296"/>
</g>
<!-- Output : 42 -->
<g id="node46" class="node">
<title>Output : 42</title>
<path fill="#000000" stroke="#000000" d="M279.6667,-54C279.6667,-54 238.3333,-54 238.3333,-54 235.1667,-54 232,-50.8333 232,-47.6667 232,-47.6667 232,-41.3333 232,-41.3333 232,-38.1667 235.1667,-35 238.3333,-35 238.3333,-35 279.6667,-35 279.6667,-35 282.8333,-35 286,-38.1667 286,-41.3333 286,-41.3333 286,-47.6667 286,-47.6667 286,-50.8333 282.8333,-54 279.6667,-54"/>
<text text-anchor="middle" x="259" y="-42" font-family="Times,serif" font-size="10.00" fill="#ffffff">Output</text>
</g>
<!-- Name : /Slice
Info : &#45;&gt;Output : 42 -->
<g id="edge51" class="edge">
<title>Name : /Slice
Info : &#45;&gt;Output : 42</title>
<path fill="none" stroke="#000000" stroke-width=".7" d="M213.2319,-61.9048C218.3586,-59.9552 223.798,-57.8867 229.0694,-55.8821"/>
<polygon fill="#000000" stroke="#000000" stroke-width=".7" points="233.8494,-54.0643 229.9757,-57.9447 231.5127,-54.953 229.1759,-55.8416 229.1759,-55.8416 229.1759,-55.8416 231.5127,-54.953 228.3761,-53.7385 233.8494,-54.0643 233.8494,-54.0643"/>
</g>
<!-- Input : 0 -->
<g id="node44" class="node">
<title>Input : 0</title>
<path fill="#000000" stroke="#000000" d="M166.6667,-899C166.6667,-899 125.3333,-899 125.3333,-899 122.1667,-899 119,-895.8333 119,-892.6667 119,-892.6667 119,-886.3333 119,-886.3333 119,-883.1667 122.1667,-880 125.3333,-880 125.3333,-880 166.6667,-880 166.6667,-880 169.8333,-880 173,-883.1667 173,-886.3333 173,-886.3333 173,-892.6667 173,-892.6667 173,-895.8333 169.8333,-899 166.6667,-899"/>
<text text-anchor="middle" x="146" y="-887" font-family="Times,serif" font-size="10.00" fill="#ffffff">Input</text>
</g>
<!-- Input : 0&#45;&gt;Name : /block1/conv1/Conv
Info :  -->
<g id="edge49" class="edge">
<title>Input : 0&#45;&gt;Name : /block1/conv1/Conv
Info : </title>
<path fill="none" stroke="#000000" stroke-width=".7" d="M146,-879.9361C146,-876.7483 146,-873.1148 146,-869.6114"/>
<polygon fill="#000000" stroke="#000000" stroke-width=".7" points="146,-864.296 148.2501,-869.2959 146,-866.796 146.0001,-869.296 146.0001,-869.296 146.0001,-869.296 146,-866.796 143.7501,-869.296 146,-864.296 146,-864.296"/>
</g>
</g>
</svg>
