<?xml version="1.0" encoding="UTF-8" standalone="no"?>
<!DOCTYPE svg PUBLIC "-//W3C//DTD SVG 1.1//EN"
 "http://www.w3.org/Graphics/SVG/1.1/DTD/svg11.dtd">
<!-- Generated by graphviz version 2.40.1 (20161225.0304)
 -->
<!-- Title: /home/workdir/assets/artifacts_max_pool_new_args/tempDir/runtimes_visualization.svg Pages: 1 -->
<svg width="1036pt" height="145pt"
 viewBox="0.00 0.00 1036.00 144.80" xmlns="http://www.w3.org/2000/svg" xmlns:xlink="http://www.w3.org/1999/xlink">
<g id="graph0" class="graph" transform="scale(1 1) rotate(0) translate(468 130.4)">
<title>/home/workdir/assets/artifacts_max_pool_new_args/tempDir/runtimes_visualization.svg</title>
<polygon fill="#ffffff" stroke="transparent" points="-468,14.4 -468,-130.4 568,-130.4 568,14.4 -468,14.4"/>
<g id="clust1" class="cluster">
<title>cluster_0</title>
<path fill="none" stroke="#375588" stroke-width="2" d="M20,-27C20,-27 80,-27 80,-27 86,-27 92,-33 92,-39 92,-39 92,-77 92,-77 92,-83 86,-89 80,-89 80,-89 20,-89 20,-89 14,-89 8,-83 8,-77 8,-77 8,-39 8,-39 8,-33 14,-27 20,-27"/>
</g>
<!-- Name : /MaxPool
Info :  -->
<g id="node1" class="node">
<title>Name : /MaxPool
Info : </title>
<path fill="#375588" stroke="#000000" d="M77.6667,-81C77.6667,-81 22.3333,-81 22.3333,-81 19.1667,-81 16,-77.8333 16,-74.6667 16,-74.6667 16,-68.3333 16,-68.3333 16,-65.1667 19.1667,-62 22.3333,-62 22.3333,-62 77.6667,-62 77.6667,-62 80.8333,-62 84,-65.1667 84,-68.3333 84,-68.3333 84,-74.6667 84,-74.6667 84,-77.8333 80.8333,-81 77.6667,-81"/>
<text text-anchor="middle" x="50" y="-69" font-family="Times,serif" font-size="10.00" fill="#ffffff">0:MaxPool</text>
</g>
<!-- Name : /MaxPool_1
Info :  -->
<g id="node2" class="node">
<title>Name : /MaxPool_1
Info : </title>
<path fill="#375588" stroke="#000000" d="M77.6667,-54C77.6667,-54 22.3333,-54 22.3333,-54 19.1667,-54 16,-50.8333 16,-47.6667 16,-47.6667 16,-41.3333 16,-41.3333 16,-38.1667 19.1667,-35 22.3333,-35 22.3333,-35 77.6667,-35 77.6667,-35 80.8333,-35 84,-38.1667 84,-41.3333 84,-41.3333 84,-47.6667 84,-47.6667 84,-50.8333 80.8333,-54 77.6667,-54"/>
<text text-anchor="middle" x="50" y="-42" font-family="Times,serif" font-size="10.00" fill="#ffffff">1:MaxPool</text>
</g>
<!-- Name : /MaxPool
Info : &#45;&gt;Name : /MaxPool_1
Info :  -->
<g id="edge1" class="edge">
<title>Name : /MaxPool
Info : &#45;&gt;Name : /MaxPool_1
Info : </title>
<path fill="none" stroke="#000000" stroke-width=".7" d="M50,-61.7524C50,-60.9971 50,-60.2248 50,-59.4461"/>
<polygon fill="#000000" stroke="#000000" stroke-width=".7" points="50,-54.324 52.2501,-59.324 50,-56.824 50.0001,-59.324 50.0001,-59.324 50.0001,-59.324 50,-56.824 47.7501,-59.324 50,-54.324 50,-54.324"/>
</g>
<!-- Output : 1 -->
<g id="node4" class="node">
<title>Output : 1</title>
<path fill="#000000" stroke="#000000" d="M70.6667,-19C70.6667,-19 29.3333,-19 29.3333,-19 26.1667,-19 23,-15.8333 23,-12.6667 23,-12.6667 23,-6.3333 23,-6.3333 23,-3.1667 26.1667,0 29.3333,0 29.3333,0 70.6667,0 70.6667,0 73.8333,0 77,-3.1667 77,-6.3333 77,-6.3333 77,-12.6667 77,-12.6667 77,-15.8333 73.8333,-19 70.6667,-19"/>
<text text-anchor="middle" x="50" y="-7" font-family="Times,serif" font-size="10.00" fill="#ffffff">Output</text>
</g>
<!-- Name : /MaxPool_1
Info : &#45;&gt;Output : 1 -->
<g id="edge3" class="edge">
<title>Name : /MaxPool_1
Info : &#45;&gt;Output : 1</title>
<path fill="none" stroke="#000000" stroke-width=".7" d="M50,-34.9361C50,-31.7483 50,-28.1148 50,-24.6114"/>
<polygon fill="#000000" stroke="#000000" stroke-width=".7" points="50,-19.296 52.2501,-24.2959 50,-21.796 50.0001,-24.296 50.0001,-24.296 50.0001,-24.296 50,-21.796 47.7501,-24.296 50,-19.296 50,-19.296"/>
</g>
<!-- Input : 0 -->
<g id="node3" class="node">
<title>Input : 0</title>
<path fill="#000000" stroke="#000000" d="M70.6667,-116C70.6667,-116 29.3333,-116 29.3333,-116 26.1667,-116 23,-112.8333 23,-109.6667 23,-109.6667 23,-103.3333 23,-103.3333 23,-100.1667 26.1667,-97 29.3333,-97 29.3333,-97 70.6667,-97 70.6667,-97 73.8333,-97 77,-100.1667 77,-103.3333 77,-103.3333 77,-109.6667 77,-109.6667 77,-112.8333 73.8333,-116 70.6667,-116"/>
<text text-anchor="middle" x="50" y="-104" font-family="Times,serif" font-size="10.00" fill="#ffffff">Input</text>
</g>
<!-- Input : 0&#45;&gt;Name : /MaxPool
Info :  -->
<g id="edge2" class="edge">
<title>Input : 0&#45;&gt;Name : /MaxPool
Info : </title>
<path fill="none" stroke="#000000" stroke-width=".7" d="M50,-96.9361C50,-93.7483 50,-90.1148 50,-86.6114"/>
<polygon fill="#000000" stroke="#000000" stroke-width=".7" points="50,-81.296 52.2501,-86.2959 50,-83.796 50.0001,-86.296 50.0001,-86.296 50.0001,-86.296 50,-83.796 47.7501,-86.296 50,-81.296 50,-81.296"/>
</g>
</g>
</svg>
